/* XPM */
static char *_7cc24ac6d554c4a82f669cf8e331a1fOda5aitAlbO03GMr[] = {
/* columns rows colors chars-per-pixel */
"128 128 75 1 ",
"  c #022F27",
". c #04352D",
"X c #05382F",
"o c #063730",
"O c #063B33",
"+ c #093D35",
"@ c #074037",
"# c #094037",
"$ c #0C443B",
"% c #0E483F",
"& c #10463E",
"* c #10483F",
"= c #0E4B41",
"- c #114D43",
"; c #0F5046",
": c #125047",
"> c #14544A",
", c #19564D",
"< c #16594E",
"1 c #18594F",
"2 c #175750",
"3 c #1A5750",
"4 c #175C51",
"5 c #1A5D53",
"6 c #1D5F58",
"7 c #205F58",
"8 c #176055",
"9 c #1A6156",
"0 c #1D645A",
"q c #1E695D",
"w c #206057",
"e c #22655D",
"r c #23695E",
"t c #286A5F",
"y c #1F6D60",
"u c #236760",
"i c #256C63",
"p c #296E64",
"a c #286F68",
"s c #267166",
"d c #2A7166",
"f c #277368",
"g c #2B746B",
"h c #2E796E",
"j c #307B6E",
"k c #2E7C72",
"l c #2F7E73",
"z c #2F7F74",
"x c #307C70",
"c c #317D71",
"v c #337F72",
"b c #307F74",
"n c #338073",
"m c #308075",
"M c #338074",
"N c #358377",
"B c #338477",
"V c #358477",
"C c #318378",
"Z c #328478",
"A c #368679",
"S c #378779",
"D c #34867A",
"F c #35877C",
"G c #37887B",
"H c #35887C",
"J c #36897D",
"K c #378C7F",
"L c #38897B",
"P c #388A7C",
"I c #398D7F",
"U c #388C80",
"Y c #388D80",
"T c #3A9082",
"R c #3A9083",
/* pixels */
"MccjhgddippipddpgggddddhccccccMMMMcMAMMcllhhhgghhhhhghghlMMhgghhpdpddpdjchcccchcclchhhhclcccllllhhhghhgggdddddpptppddhjj40090e04",
"ccMVNVNAMMbllzMbAAMncccjMMMMchghhghghhggghhhhcMhAMAccAMMMcMAMcAMcnNAANNNAJAAAJAJJKJJKJKYIIJJJGGJJAAZAZMMAAGAMMAANncccccn4944514>",
"cjccNAAACMMlMMzlNMMNNNNNJJJJJJJJAAJAAJJJJJGAAJVMhMlhghggghhhhhhhghggggghnMMMMMMMcchhcccccccclllcllhhllhhhllhhcccjchccccc9000009>",
"chcccNANMbzhhlhlVVNNNMMNAJJJKJIJYJJJJJIIIIIJIJIYYIYYIPJJJJJAAAAMNAVNALAAAVMAAAABVMnMAGJKIJJGAAAAAAAAAAAMAJJJJPJKNNMMMMVA99909005",
"nMVAALGACMMllhzlMcMcccbMZJJAcAAAAZAMMAJAZZAAAAZMMMMMMAMAAJJJJGJAAnNAAnNAJJJIJYYRRYPJAAAAAZAAZAAAABABJIJAMAAAMABAMhMVMVVM40000004",
"jhcAAGAAMzMlzhzlMcMMchdggcccbZZcccccMcMcclcccbllhhggghhllcMMclhlgggggggghlccMMNAAMAAJJJYIYYJJJJJAJMMAMMMlMAMMMMMcjgjjcjd40999901",
"AAGIPPGAZCMzMzMlNcVAANMhlccnMAJZAGFAAAGGGZAAAAZZAAAAAAMAZAAZMbcchjhcjccccccccMccMMMMcccANMcMccMMcMMMMMccchccbchhggdhcMcjerrrerr9",
"AAAGAAAAMCMMCMMMAAGAGVMnMAZAAAJAAAAAJJAJJJAJJAJJJAAAAJJJJJAMMMcMjjhhjjjcbbMMMAAAAAAJAJAJJAJAAZAMbMcMcclhhcMcMMMAMVAVNnMM60990re5",
"cncnNVNAMNVNNNNMllllMbMzlMzMMzlliifsfffflhgghgggllMMMMMMncchhghhhhhcccjjgggjghghgghlllllllhllggggjcccccjcMMccccNgdgglhhhppeeeew5",
"ddgghcccjgggjjcchhhghklhhllMMMMMsisssiiigggddddglllllMCMnjhggggdddddggdggggjghhgapdddgdgddddddggggggghjcjjjjjcjjppiiiipaeppiiiiw",
"jccjnMcNMccMMccclllllllghlglzMMMsisuiirqpppppadglllllMMlccjhjggggggggggjjjjjhgdgddggggdddsddddddjjjjjgggggghjjjgpiiiuiidgggghdp6",
"gcccMMccMNMMchcjllllklllkhlllMMMfsiiiirigggghhggMMlllzlhccccccccMcnMcccccccccMcjdggggdgghhlhhhggjjgggggggggghjjhpppieuihdppppir6",
"hhjjcjjjjjgjgdgdghglhlzllhggghhksiiissssggggggggzzllhhhdhhjjjjjjhhhhhhhjgjjjjccchghggghggdppppsdggjggggghgghjjjcddgddggguieeeee6",
"cjhddddpdggggppppdspdghgggghhhllssiuissigghggggglzhhglhhjggggjjjcccMnMcNNNNNccjcllhlhklhghllllllMcjccjMccMNNVNNNgghgggglidppiie5",
"jjjcjccjcjjjhgggddddsdgggglllhlliuirqsfslgggghhgzlllhzzlMcnchhhjhcjcjcjcccccbMcchghhhllllllllkghccnccNMMNNNNAAAVghkhggglpppiiue6",
"dpddpddddggggdgjdpgddggdgdhhllhgiiirissigggdadapghggghhlMcnccNVccccMMMnnccjccchcgghhhhgghhlhghlzNccNccnNMAAGAGLGlldhkllliiewww6,",
"pipaiddsghjccjjhddhggjhgcccccccgghhhllzlcccjggggggghhllbgdggpaggggglhlkhgggglhgdfppppiiiggggllhhhlzzhlzzVAGLLAAGAAVVNMNjrr0e0rr1",
"gghlgghhcMjcccchgdhggcjhjjhjcjjhdgghghllccccccMMhkllllMMghggglldghhlglkgdgdddghhhgghllllMzlllzMMMMMlMCMMAGPGGLGAPPIAANcN0099954,",
"ddggghllMcjccccccjjjcnhjcjgghjhggdpggglzNNNAAVAAllhklllhdggdglllhlhgghlgggggdgggggdggdddhklzMMMMMMgzlMzzVGGLPAGGVPAcjhcc954444<-",
"gddghhlgccjcMNnNNMjccNjVNNcjcMNMlllggghgjgcjhjcghhlllhhdpappddgfppppppdpippdpppspppppdddlhhhkllllgdllbllNAVAVNAPcNMgghjN9414541:",
"dpdfdddphjhjhgdppgjjjhdddpttppadddddghMznccNMAANlbMzlgdieeiiippiipieeiiiiiieeiiieuueweeeittidgglMlhzlMMbAPPPIPPNcnjgddpg554441,>",
"dddgddghnNncccjncMVVAANNVnjcMccNlzMMllMMVNAVVAANlzlhgdggipdddgggggdadgggggghgddppgggddddllhddzMzlzlMlMCMLGANMcjggdtpappg4599094>",
"hhllllllccNNAALVNAMnVVNcAANchgpgggddiitippdgghgdpppieeee66666wwweiiittiiiiiiiuti6eiueeersspieipiiiuiiiiidpgghhgggdpddppg59000991",
"blMllglhcNMMcncccMccNNNcNcgggjddghggdddigdgjhjhgdhlgisdiweueueeippppppdddfpfhdddeudddddgklgidghhhhgghghgcccccjhjjpdddghj49009901",
"95><9999::--$%-::>>--->-4490954<<44<4544>::->>>>$-&--&&&-&&*-*%$---------->-%-:-++o#+###--%=----++$$$$%%-%%+%&&&:$*--%%*$$++$$--",
"09>90000>>>--:>,>,,,>:>-59944494<,<44454---->>>,%$#%--%%&&&&-&$%>>:--:-=->>>-:>:#$$+#$##--:%----+$$%+$&$%--+$%%%:$--%$%*$oOo+$--",
"q0409000,,-:>>>::>,>>:<,4994444<<44454<<--->>>:-$+o%%&&%&&$&=&%->,>--:-%%><<>,,>$$%+$$$#----%---o$$-&+&&--&+$$$$%$*::--%X+$o+$--",
"09999999:-:>:-$%->,,>:->9994444999944990::,>:-:>%%%$%---->-&----,,>--:>:,><,>:,>$%$+####-=:::->,%%$-*$%&&&%+$%$o$-:-%%--o&&$+*--",
"04990444-::-$$#%%-,,,>->9499999954<990qr>>,445,>-%$%&----1-*---*>:>---:::::,>,,>%-#o$##=>:>>--%-+%$%-&$$$%$$$$+o-::-=--%$-&o$---",
"04994594::-*-----%->,>:-99445445999900q01,>,5555::-%*&---------&,::-=-::><<,,>>,%%$o$%%%-,<>>->5-%*----&--&$$$&&:>>>:--$$$+&----",
"145449<,-->,<>>>>>>:,>>-<449540999949900,>>>15>>---%%$%->>>---:&,:::===->>>>:>>:$$-+=#++---%$$->$+&&*--%&&&*&*-->,>>:---o+&-:>-&",
",>>,,>:>--------------*%::>>,>><,>>:>,<<--------$$$+$o$$-----:-->--=%%==-::::>::$#+o#+oo%%%%+$--++$#++++O++$+o++------%-++$$&&=o",
"hdpppapdhlhccccheewweeeichhchhchgdhhdhhchdpdggdddghlhhhceuuieii0MMcccccccccchhlhhlgglcccggddddddpiisspppietiitew333eeeeeddgddggg",
"VnVAAAVNGYJJJYIJhhgghghkIJJYYYYYJMJIAGGJPGMJJJJAJAAMMMMMeurueee6bccMMGJJJJJJJPJAGGMAAAAAcjhhgdptte9erteeieettastpipeedapnhcnNNVN",
"hhjhggggcMMMAAVMiiiipuiicccMcMMMcglccccnclhcclhhbMhlclcceeuuuuu5hhcMAAMMMGJJAAlAJcJKJKJJNcnNNNNclhhhhlllzlhlhlgdeiew7wwwpdddgggd",
"ANNnMVAVAMbMMMMMpdaigdhlYJIYYIYIAcJJJIIJIAJJJJMJAcMcMMMAeuuueue5hhhcccMMccMZchMAMAIIJJJJNccccccNllhglzzzlllzzllzhhlggddgMNNNNncc",
"AnNAANNAAAAJJJKIlllhlghlYKIIJJJJAcJAAJJMMBMMcMcMMgMclcMMeuuueee5ghlcMAAAZMMcccMMMJJJAAAZjddddjhhgdgdplllllggghggpipippdpcNNNccch",
"NccjhgjcZAMAJAGGgggllhlzYJJYKJKKJAJAAMZMchMbhdhhhhggghcp5uuueeu5dddhhcbcclMbMcbMZAAAAMchadgjhgggddddpidhllgghldgpiiieeeedjjggggg",
"AAAAANMAIJIYYYYJkkghggghGBAAAAAAMAJAAMcMhhhhgdgdgdiadhhl6upuuip6GYYJJAMMAAMMMZAJAAJJJAMcgjnMnccchhhhghhkMzMMMMlzgglhddipjcnccccc",
"NAAAANNMIYYIYYYYlllllhgdMZAZAZMZJAJAJJJAMlcchhhcMMcMccGJ00eeeee6AJJJJAMZAAAAAJJJAAJJAMcbcVAGAAAAMMMzlbMlzMCCCCMMgllhhhpdMMNNVAVA",
"hlllzlllcVAMNAAAAANAAMjMlbbMMbMMhglhghhgzhllgdddippiaggg94<44<<:fddghgggbzzllzzbllzzzddgMAAVNGLPPPPGGLPPAVVVVAAAGLALPANMzzMMMMCM",
"gggggggdhgcjccMcbMcnngccgghghglhdagdgfddlgllldgduiweiadd944>4<<:ieppaddglhhghhhkhhlllhggccjhhNAGLGGAAAAGAVNAVNNccNAAGLAAMMMMMCCC",
"ggghggggjggjccccMchcdhcjgdddddghdpgggdpphdhzllhgppippppd0004499,ddglglllMMzzlbMMMMMMMMzzNjccjgNVAAVVNVAVAAVVVAAAANNcNAAAbbllzMMC",
"lllllllhnjccNMNNcccgccccgghggggldaddpfaidsdhghggdiipiuug049<4<<-dgghllhlMCMMMMCZCMZMCCMMcNMNMcVVVAVVVAAAGAAGGAAGAAGGAAAVzMCMCCZZ",
"lzlllllhcgcjhgjjjhhcchhjgghgggggdpiippiepiidggdgsddsdfpd959<44>=pidgggddllbzblMMMMCMMMMlcMMcccjcNVNNNVAAAAAGLGGAAAAAAAAAMMCCMZZZ",
"hhzlzzllMccMchgggcccMjcclllllghlgppfddfpdapglgggpppipspd959444,=eiiiiiipghlhlhkklzMzMMzgcMccccMVVAVNVVAAGLGAGGLGAAANNAAACCCCCCZZ",
"llgkbzllccMNNMcjccjccjcclllgdgglgfpddgddgdpghdggdiiipadg9944454-eppaddpdzzlhlhlzMMCCMMlgMVNNNMcVVAVVAALPPGGAAAAAAMcccNAVMMCCCMMZ",
"lzlhMMlbMcMMMcMcccccncccgglhhhhhdpfpadppdgdgdddgpuwepppd4994454:eeeeieeigghgllhlbCCCMMMbMNNNNcVAAAAAAAGAVNNNNMncjcccMVAVMMCMMZZZ",
"gggddlgggdddgddfghghhhhggccjjhjjgggdggggggdddppdsppipddd4994444:dddgjcjjcNNMVVNcMVAAAVNNzzMllhlzbzzMMMMMhggdpiiipddgghkhhhklzbbb",
"dgdpdpgggdfdgddflhlllgglccMMchcchhlghlhhggdggddpdddidglM4544444-jjjccNnMNNNNNMMccjcnNVAVlglllhhllhghhllhdgdggggggghlllkkkhggllll",
"gggggddaddgggggdlhggghgkccjcjjMMllgghhhhdpdgggdipddidghl<<44444:jjccNVVVVMMNMMMMNnMjMVNMlhgdglllllllllzzglklllllllllllhggddgghhl",
"addddddpapippppigghhhghlcjhgjhjcggggghgdddggdgdipddpghlM9544<<>=jjgjccMNMMMMNVMNVNVVNGAAllzbMMMMMMMbMlhldsdppddaddhdaappggggdddg",
"pdppffdpppppppppgddggdpdhhjjjjcNzMMMMMlzMbMMMMlhgggdssdg444444<:gpdddjccccMNcggddghjhhgdpiiipddgghhlMMMzdgdghlllgdpiiiiipppppfdd",
"hlhghhhggggggdgdlllzlllMAGPLGAAAMCZMMZZZZClgsiiitiiipsgh44444<>:tpdtghhjcMcccjghhjMNVVNNlhhhlllMbMMMZZZZlllklbbbllhgggdddhggdggg",
"adppippiiiiiiiiiggdgggdgjjjjggggppddddppiiiiiiiipippddgl9544444>ggdtdjcjjjcNMNVMncjjjchhlllgddddddssdgggiiiiiiireeewwwwwwwww666w",
"lhglgggghhggggggllllllllNNMNNMccllzMzlllllggggggdppfddgh4999549,cjgdpghgggggjhjghhhhhhghgapttiidgdggddddiiiiireiiiappppiipiieiai",
"----:------&%$$$>>>:-->:-----===<<;:>444::;;====@@$$$$#$:--=%-%%+ooO++++Xoo.....#####$%%%%%----==--%=-==<<<<,,<<::>---$-$$$&&&&&",
"------*-----&%$%>:>,,,,>>>:::::-<<>>><><===;;===+@#$$%$=---===%%########+Ooooo++%%%=======%=------=%=---44444<<4--:>--->%$%--&=-",
"&---->>--------->>1155>,,<<<,,>:4<<<<<>>%$=%===%+@##$$$%===%%-==%%#####++o++++#+===--:--==--:-:----%=---44444<44->>>-->>&-------",
"->-->>,>-------->155,>,,<<54<,>>4444444>$$$===%$oooOoO+#%$%%%%%$####$###++++O++#==:-======-----:-:-%%=--54444<44::::>---$&&&*&&&",
"->----:>>>-----%>,,>,,,5454,><:=<<>><<<<==%==%==+@o++##$%%%=$$#########+++++++##========--::>,<>>:=%=---44445444-:>>>>,1--------",
"--->>>--------%->>>,111<,,,>::::4984844<%==%$$%%++#+o##$###$$$$####$###+#++#####:-:---:::::::::-====--::99995449>>>>,>,,----:---",
"----------%%%%%$:>,,,,<1,:---:;:444<<<<<=$$$$$$%OooooXo+#$$%###++###+#++##+#####------:--%%%=-==--------44544499>>>,,,,1--->>>>,",
"----------%$$%$$---->>::>>--====>><>;;;=@@+@@@@#XooXXXoo+++oooooXXXX.X.X.oXoooo+%%%%$$$##$%%%%%%%%%%%%%%>>>:-:><------:>:-------",
"jjgggggjMMMbchggghllhhlcghhhhhhgddpssddddddsdppphhghhgggadhhclhhhhhhhgdgghcclccncMMchhhghhhhhhhhhhhccMcMchhlgdpapaddddggeeeiipie",
"cVAALAAAIYYYIJJIIIJAAAAANNNcjjggdpppiiiiipddsggdMbAccAAcMMAJIIYIJJJIYPJAAJKPJJJJJJJAAAGJJJIYRRJJJIYYYRRYJJGJZMMMNchhhjjceeuuiiiw",
"ggjcVVNAJJJJAJJJYYIYIYYJAAAGLLAAzMMbzlllllhhhlhghchhgdgghccccMMMccclhhhghlchccnlhhhlcllccccchclclcclcccclclhhhhhhjgddjjjiuuueww3",
"ddgjjcjcMbbMMMZZAJJJAAAJAAGGGGAGCCMMMMzlllllllbMKIYKIJJYKIIIYYYYJGMchcMMchhhlccccccMMMZAMAAAAAAZMMMZGJJJJJJJJAMANcjghjcNweewwww5",
"ggjccNchhcMMAMMMccMMMZAJVNNNcNNNlllhghgggghhhhggMZMMAAAJJJJIYJJMAllMlhhhhhhcccAZMclclcccMMMcchhhlccMAAAMMAMMcbhhgdggdjccweeeeee5",
"ppdgdjggcccccMbchcMbbccljccccjjhghgggddghggddgghMMlhhhhclMMcbMMMBhggddddapddddgdddghcckccccchghhhllhccMMchlhghhhhddgddhp6ee0006,",
"NAAVcchcccZZAMcMcCAAJJAMcjjjcccchlllzMllhlzzllzbJPJJJAAABAAAAAAJYJMchhhhhhhgddddddggdddddghhgghhhcMlhhgggdpdddddddpgjcchweeee06,",
"VAAVNngMAAMcAJJJJJJJJAJAcMcMNMcnllllzbbzbzlzzzMMKJJAAJJJJJJGJJJYYRJMcccccMccccclllhchhhhhlhcbMMcchMAAMMcgggggddddcNcccNVeeeuew05",
"cncncMhjhlllhhggjjncANNnccccccjcMNNNAAGAAALGGAAAMbMzzMMClhhhggllllllgdppdddpppppggdgggghdddddgddlzgzMllzgppuweeueidggddg459995<:",
"ppdgjhjcdghgggdsgghhghjjhcccMncNVAAAAVNMNAGGGNNNlhhlzzllghhggdhglgglklgdgdpueipaggghhhggdadppppdhlglMlMbdpieeewwiaereeei00rq95>:",
"hhjccNNVlhlzllllNNNcnNcccjjhjgghcccMMMMccccNnccnllhgglzzgdgddadddgddgggglggdddggbllllkllglhlgfpdhdpdpdddiippiipiewee66ei9900545:",
"cjccNNNNMllhlMMMVAANNAVNcccccccjMMMMMccMNAAAVNNNlhlzMMMMlhkkhgghgdghlllllllhhghhMCCCMzzMllllllhahdpteeweww67wewwew6566wd0000645:",
"hhgjjjcchhhddghhcjcjgjcjhhhjjhhhccNNMcMccMMncjhjhgggglMMhlhhhggklklkzlbllhgdpdgllllbbbblddplllgipditeeriw6ww6wwew6wwweeir00994,>",
"gggddggjddgpiiiitttdgggddddgghjcMMVNNMMMMMcMncccgdsdhllbggkglllbbbllbllhllkhgkllCCMMMzMblllgllgdigspiipdipieiieweeeeeiip9999054>",
"gggdgcjNllgaddieahghggjgghjjjjjjcjMcMcMVMMMMMchhgggdghllgdgllllhhhllbbbblkkhkhglMMMzllMMhlbgdgdadgddddigdiueeeweewweeeia0q00944>",
"dppptdddghddddsdggggjjjccjjjjcccccMMjcccccjhggggdpddghlhdgggglkkklllklkhkhhhglhgzllMMzMlldhgiddpgeeiiepdpiiiriiiiiieipee5909495>",
"hghgghlhcMjjjchgpgdddddgdhlghhhkddddpfddappppiieeuiipddpdgghhghgllllllllllllllgghlMCMlghghggihggiiewwweieieeiiwwpppddpdgeeuuuee3",
"cchhhhlhjcghjhjdiipaddgdpgddhhhldpdpipfaafddpppipipaddgdddfdpipifdddllggggghgdllhlllhblggldgilhgpiiiiiiepeeiiiiiddpddhhnweeeeew,",
"ccchlhcccchghhjhdddddgdggdgpigghpppippppdddggddggddgghggdgggdpipghllhgggggdddgghllllhdgdgdpgidhgpiieeeweeweeiuuedpddpppd00000663",
"McMclhlcMVccMMNMlglhllhzllzlzhhlglhdfiippppiiiirppdggdgdhgdpiiiigdgddddisiietipgdggdhgdddpiitispieeree6wweeieieeddgdgccne006335>",
"MMAMcchgjcjMnggdiiddddiiptitippfipdpdfgddhdhgglllhhhhlgpiiueeeeuddggddpdipiiieiiewwipptiiirriiglagdddpdppdgglhgfccgjjjhc6e66666>",
"AAJZcbcMNANGAMcclllMMbMMClblMMMZlllghgllllllllzkllhhllhhggdappadlklllghhdlhlgggdidgidhgdhggglgMMllhgdhhhllggdpppjdccNMMA000e006,",
"JJJIAAAJANAIIIPAlMMhlllbMMzlhgggppeeeeeeueuipiiiiiiieeiew7ww666wiadptipiiitieiieetieeiieirttitpdieewwwwwewippgpggcVnAGcN66665053",
"JPAAMhMMjjNNMchhddddsdghgdppdghhdpiieeuiiipfpaddipiiiadpppiiipppggdsghgdggahdggpwedgaghdhdddgphldiiipppddggdgddpjcNAVAhN05665655",
"+X. .X#%#o#ooo+X$%$+++##;><0898<4>4999>0:,,->-:>->---%$$#+##$#$ooOooX+++--->>,5,9954411,--=-->:-::>,,,1,%%-->>>----$$$##$#%%+%o+",
"$++o##==%###+##o=$#+$#$%<:4<<84>>;<<<9>5--=---:-$=-%=%+$$#%==-%#%%%$+$%$>5115>,109945415->>,,<,<54455555:-->-:>>--%$#%##+$$#+$+#",
"==$+#%--#=###$##;=$$$$%=44088q94<>498qqq,>-:->--%%%=%$%-#%---==--=-%+%-#1>,,5,,5rrq955095>,<<451,,,5,>,>--->>-:-%$%==%$++%###$++",
"%====$%#$%$#$%+$==$%$$%=840880494:909800,=>-::>4%=%$%+=%%-=-->:%-%=%%=-+:->,69560095>,49>,>>:>>,>,>,>>,5--->>---%%%%=%#o#$+++$#X",
"O#$###++%###%##+==%$%$==440940<00>0yqqqq::>55,,<-==%#-=--:---:-----%%-=o*-<5,>150955>149>,,,<<>>>>,>>,,1---:>--$$-%%=$+#%%##+$$o",
"Xoo++X+#+###%+$$;==%%%-=94q890<00<<0qq4<::,,:,:-$####%#---:>>>--=$=##%%+->>:>,5165,,1449>,54,>,>>,>>,111-------%%>---#+%%#$+++%+",
"o...X++o++##+#$$>==%$$=%9<0948<944:<54,9,:,->,>:%=%#%#--->>>:>:--%-=#-=-<-->>,11441,4455>>1>:-:---->>51,%%%%-%%%->-%#+#%%o#ooX#+",
"X....XXX.oOo+###:=$###%@<;4<>4<>44,-=:<>$=##====o++#+#$$-:----%%#+##o+%=:-%%%---,>>>>>,>---%%$%$%%$%%---$$+#++++$%-+o#++ooOXoooo",
"hhccllcciiipieteghdhccjcMAMcccchhhhhhMAAcggjdttipddjjgghuiuueew3JcAAMcddhgpdtpapddpadddgeiiweuiighgdchlcgMcgjgdgccMAMhhghchhhggc",
"AJYYRYYJlblllhggMANAIIPPYRRYYYYIYJPJJYYYPAGGANNAVNNNNncce00e0ee5ZAYRRRAJJJMcMghllccclMhcpipddiweggddghhchhcjgcjgJAIMhGMGJMAJJJAJ",
"hMcclchcaddaippadgghccjcMcMMMccccccccMMMjjcjcchjcNNNNcnc0iiiue63bAAIYYJZGAMhhhhhhhbMZllcadgglllgJJAAVJIJPAMGVNNchhhggghhghhhlhcc",
"GJJAAJYIhgddipiijjchNNAAJGYYIJJKAAGGJIJJNMAGGANAVAGAGVAGquuuuu65cAJYGJJGZAMcggghhcMAMhcAdpddghllIAJAAAJKMAAALAcnJGJJAJJAGJJJAAAJ",
"bMMMZAMZgdgdppipMcMnNnVAJAGGAZAAAAZMAZAMjnNcnncnNcNNcNVc00uqee05MMJYRRRYIJAAMMcccMAMMcMZppdgdgdgMAZAlhhMMjMjjNNhhgghMAccMMMJBMAA",
"hhhhlhhlipeew66wddgccccNJAJAJZBGJAAlMcMMjjNchhcjjggjjccd5qqq005,cchMMJYYYYIIJAAAJAAAcMcMppppppfibclhhggdhcdhdggglhhggddddggghdhl",
"MAAMAJAAdppiwe66ppdgdpddlhcchhhccccghghcjjjgggggdhdhcVch0quuuy05JIJRYGJJJJJJJKJJJJJMJJYIggdgggddMZMhMcclgcNcncjjcllhhchhhccncMMM",
"AAAJJJJAglgpppeiddjhccjglhcZMMcMccchMccljjhggjhccNAVAAAMuquuy095IRYJIRRRRYYIJJAJYYKGJJJYllllghkgAMcZlMccghcVccMNAMMMcMZlMcMMcMAM",
"lMblMMzMCzklzggdgghhjjjghgcNMMcMfpgdddgddddpadpagglzMMzlqyuq0qy5glllllggcccjjcccNVcMNAANlllbMMzbNMcMjjchgdgglzlhlhgglhdghgghgghl",
"lMlgzCCMllllhgddggggjghhhhcccjhcppfpiadddiipddddlgdgggdhiiy0uuq5eiipapdigddddddgggddjjghglllzbMlNMjjhgggppppppdgggdddddgggdddsgl",
"hlllbbhlzMMMlhhdgggjggggjccccjhcipdadgdadddggggdlhgggddg60uuuuq5ggdddpppgdddddddggjcjcMclhggdghhjhjggjgddpiddiiiitipppdggddpidhl",
"lMMhbZZCCMCClzllhcjjjcjjMNNAAMNNgggddgdggdddfapahhgghggMiiiuiiq5ggggdpiphhhggddgjhgjcNNcgdgkllzlcjcjjhccdhlglhllhhggglhlhlkgglll",
"zlzlMMbMlhllllgghcccjjccjjMNNMNMdgggpgghlgdgllllbMCMMMzluiuqqqq5dppiipiiddddddddggjcccgddhhhggglMcccccjclhglbMbzllllllzklllllMlC",
"hllhhlhlzglbMbldjcjjMcccMNVVAAAVglhldghllkzbzzllZZZMbbMMqiiqyii5dpieewwwpdddptttddggdgcchdpdghlMNMjjcccchlzlhhhllzllCzzzlMMMMMMZ",
"hgfpdlhlkhkllllgchhhjcccjNAANMMngggghddggkkkllllMCCCZMMMyuuuuiq5gdiiadddjjgdddpdhgdhcchhggggglbMNNcjcncMhlllzCZZZCZblMMMMZMMzlMb",
"gdpdidddggghhllggggjgccnccMVMcccgdfdggdgghhggdggbbllMbll000qqq62fuuirweedpddddpgjccchhhchgggghlzMNcchjcclllhklkkllllblMMClhlgggl",
"pdiiippdeeiipppueeiiipppglhlhhghcchjcNcNzzhlllzzgdddggga,4<<<44>hcghhgddghjhghghhhgghgdgddpiipdggddddddddgdddadpdddgggdgddppuuii",
"dgdippipweeipppiieereiiidzlbllkbAMMMNNMNzMbMlMMMkgglkkkh<4<>><4:jcnnjhjhjjggggdddghhggllpppddddppaddgdddddghllhgghggdgdppiuuueee",
"llddgghlpiepgpddppiippppdglMMzzMAAMMMcnVMMMMlzzzlhlllggd909,:49:hMMAAVMMcccjhjcczlhhlllhdgddfafggggddddkggghzllzzllggddppiipppii",
"ggddggdgieeuapiiuiidapdpghglllllNAMccNNAMhllllMCllzllklk905<<49>jcVAALIPGANNNNNACMCAZMMAbklllllhhhlllhdddpdapddpgggdppiiapipueuu",
"dhgdsspdiiiiiieiipppiupidghlbzMMLPPPAPPIAGJJJJJAzlkhgddd9999909>ccNAGGGLLIYPAnMMzlllbMllddddippdaddgllggdgdggggggghgdpuuiieiiiie",
"MMlgzzlbhddlclhlhhlllhggbMZZAZZAPIIIIIIYJJJMzllldggghlll9004<90<jccNVVAAPIILGANAlMZAGZZAMllhhhhhhlllllgggggggggggglhlggggddddhgp",
"gggdddidppiipddaadddippidddhhggdhhjjjgggddggddglggddddgh49qq0904ccMAAAAAAGIIPPIIZMbllMCClbldpiiiiiiuiueeeeueeeww76w6ww60wwwwwewe",
"MCzhhhggghhlllzllzllhghghlllzhdgjjcMNMnchllhhgllgddppddg>,909005MMMAANNnnNVNNNNVlllllllbgdpeeiifdddgadddpiiipaiueeeeippipdpiddhd",
"%-%%----4<,,>:=::--:><:-+oXoXo+o++oXXXXX$$%=%---49<>::::<<5950qq4<>,44<>%%=%--:-+#+++O##::>4544<=---=%==-=%=%%%%==%#%------:----",
"%-%%-%%=<,>::>:-====:-:=#$####++#$$#+o++----::::444<:-:::<45<90009444499:=%%-:<4%%%#%%==444<454<==%#+#%%%%===-=-=-%%%->>--%-%-%%",
"--=%----454544,:-::-:>>:#####$#$##%=%%%%>---::::<>::::::>14<<50000999994::->>,4<%%%+##%$>,,,4<,,%==%#%##%$%=%%=-=-%##--%%$%-$--&",
"->%%%%-=,<<,4>-=====:>::########+##%$$%%:::----=<<><>>:>><<<<40909999995-==--:,4%#%%#+##>,,:,>><=====$$$==%%%$$%===%#=-:--$%$&%$",
":-=%%=--<<,,>:==-:::>>>:$#$%$%$$%%%%$$%%:::-=---4<<<<445<<4950qqq0999959>::::><4=$##$+#+:,:<4,<=#$====$=::::::-=-=--=--=-%%&%$$$",
"-$$$+++#:::>,:=::::<>:==###%#$$%$%%%$+#$::>>>:--<444<<494<<5490994445549,,>,>4<<==%++%#$:,::<:==###=$%==%%$%%%%#$=--=-->----&$-%",
"&$%$%%##:::::-=--:-=->:=#######$%%%%$++#-->>>>--44995599954<54544<<44449::>,5,<>-=%#O#$$:>:=-===##$#$$======-----:--=--->>----&-",
"+oooooXo%%$###+#######$%XXXX.....XXo+#+#%-%-----,>>>><4>>>>>:>>::---:>::=-=%%%%=+ooXXXXX$$$$$##$oXXXXo++++##+++####$##++-*-$&-$$"
};
