/* XPM */
static char *wall6[] = {
/* columns rows colors chars-per-pixel */
"64 43 42 1 ",
"  c #5E5E5E",
". c #636363",
"X c #666666",
"o c #686868",
"O c #6B6B6B",
"+ c #6C6C6C",
"@ c #6E6E6E",
"# c #6F6F6F",
"$ c #737373",
"% c #747474",
"& c #777777",
"* c #7A7A7A",
"= c #7B7B7B",
"- c #7C7C7C",
"; c #7F7F7F",
": c #808080",
"> c #838383",
", c #848484",
"< c #878787",
"1 c #888888",
"2 c #8B8B8B",
"3 c #8C8C8C",
"4 c #8F8F8F",
"5 c #909090",
"6 c #949494",
"7 c #979797",
"8 c #989898",
"9 c #999999",
"0 c #9B9B9B",
"q c #9C9C9C",
"w c #9E9E9E",
"e c #9F9F9F",
"r c #A1A1A1",
"t c #A3A3A3",
"y c #A4A4A4",
"u c #A5A5A5",
"i c #A7A7A7",
"p c #A9A9A9",
"a c #ABABAB",
"s c #ACACAC",
"d c #B1B1B1",
"f c #B7B7B7",
/* pixels */
"*$@@o@$$%%*-:*@$@@%*--:<:*:<<:-<<:<<1<-:1<-:<*$$%*%%%$@@oXXXooXX",
"-$%$o$**-%*:--%**$$%**:-:::<::<<13<351-:<<-:<---*%**$$$@@oo@$Xoo",
"*$*%@$***%----:-%$%*-:<<<1<<<*-<55535531:::%*---%--**%%%o@$$$oo@",
"<**$@$%--$%-<::-%$$%:1<:39653<-<16115531:---%-*--<<*-:-%$$*$$@@@",
"1%---%*-<-*:::-::-**<:::35661531<11365331<-:*-*<31<-*-%*@@*$$@@@",
"1*-::-:1<:<---%:-%*<1<-*<55136633<<133351<:::**-3<<:-*$*%%*%@$$*",
"6<<<1163<<1<-%--%**<13<::333566555<-31553<-<:--*-<----:---**%%-:",
"6531565333<-*%-*-<::-53335556633531<<<553<<<<:---::*-1:---****-%",
"9556665313:--:-<113:<3655666953535331<3553311:-<-*:111:@@%--*%*%",
"566666653<::::355115116699665353335333136556:*135**13-%:%%----*:",
"6356656w6<133<16513313695565665-:<1335553356:<3331:**%::-%%%::**",
"631369ww6r6311163<3555556333665:-1<-:56531333155661*$<<<-3*%:---",
"w55559966ww53153319665656565535115<**<35336561:5r63*:33-33:****-",
"r666ww99rrrrw5651999966633531<:<<11--*156666653rw1-1133<<:<:--%*",
"r9969999w9rrr996356w631533<<<:-<1:33::1956w9999515*-11-<<:1:-:-@",
"w969w69wr96wupu635rrw55553<-33-11-1:<1<135699w6<65:*-%%<<311:13o",
"u99up95rur99usrwupr99w9533<--<$%:***:1<156335593511:<%*3351<1<:$",
"r9wurw9rupw36pppsspw9wr6651<$%*%%-*%--%:363::355533593113<<<3-:X",
"prrw9rruupp66usssdfdr5599661--<::1--***$1633331:66963<%%-:-::<:o",
"suruwwrrusprwwwwupddsu6596w5<11:<1-:-***166333<19w66<::<<-<-::<@",
"pruuw9wwrppu9999upussr65555966513311<--:1331<3136w5611:-**-<-:%@",
"pruu9wwuuuprrurupssuur53<<19965631:11::*::31:5536556113--1%::<@@",
"supuuuwruruupupuruuuurr1-1369963<:1:<:11<<13<153551511<-*11%*:X%",
"pwrruw6wruurppur9rruruw53566w951<<:<<:<31111<15<1353:1:*%:3*X:@@",
"rwuppw6wrwwupuw99wr9rr669966669511<<33<3331<31:<1353<<<*$*1<*@*@",
"9wpdsrw999upuw65ww96ur969rw95566551351:1111:<<-<3353<:-*$$115@@$",
"rwpdsuw696us9w99ruururrw6www6596653551:<1:-::-::13651--*-%::<<%o",
"uwuusrw99wwur9wppppuuurr9w9556566653531-::::<::<1661<:-*---$-::*",
"r99wurw96rruurupdspurw99wrw556566355531::<----:1151<:<:-*--**--*",
"u966wrrrwpupurwurpur9wwrrur6566w5<<11133::--:**%*:---<:--*-**%**",
"w9w96wurwuuupuur59rruuupuurww9993<<11351**::::-%--*%*:<<--****--",
"9559wrwwwrruusprwwwwwppuppprrur5<<<:<131--*-<:--*%%%$-1**-$%%%**",
"5::59rr9wwwwrpuuppprwwrrruuppuuw5311<<:::1::<:-::--%-<*%$*@@@%@@",
"5<<16rrww959wrruppupuw9www6wuwwrr931<*-:%--3--:<:-:::<**$$%@@oo@",
"5<3136wwr9wr95rupuupruwwrw569w6ww333<111:%::%*<<<--<<::-*$-@@ooo",
"53111315wuurr9rwruurwwwwrrrrruwww5w3311313:**%:11<::3<::*-<o$XXX",
"961<:<11396966rrwuur99w9rprupurruww31<63366<<<15961111:<:1-*@XXX",
"9531<1133316w6rr656w969wruupuu9wuww611695355665w9531<-<1:-***%. ",
"631131-13336999r959wrw6rw9rppuruurw95-696519366666551331:**%$$@ ",
"6:<:133113113669w931569636rpppuuur93<<9113199663355313:<11-%::$.",
"3:1:1513<13113366911151:-39wppppuw61<355<115995<<31<:-:<<3:*:<@X",
"1<11331531311339w3:1<1*@$$:3wrur9965<336:-<95311::<:<*<1<<:<5*$o",
"31:333553::133199393*$@@@@-56wwr9695:53<1-:5-%11:*:3--<<11-:5-oo"
};
