/* XPM */
static char *wall7[] = {
/* columns rows colors chars-per-pixel */
"64 43 224 2 ",
"   c #401701",
".  c #441C03",
"X  c #4A2205",
"o  c #4F2907",
"O  c #4D270A",
"+  c #4F2A0A",
"@  c #552B08",
"#  c #522D0B",
"$  c #54310D",
"%  c #5A330E",
"&  c #542D10",
"*  c #563411",
"=  c #5B3612",
"-  c #573812",
";  c #5B3A15",
":  c #5C3A19",
">  c #69390A",
",  c #623B15",
"<  c #6E3F14",
"1  c #613E1C",
"2  c #603F20",
"3  c #5B4117",
"4  c #5D431A",
"5  c #63441C",
"6  c #6B441A",
"7  c #6C4418",
"8  c #62491E",
"9  c #784917",
"0  c #754718",
"q  c #764A1C",
"w  c #5E4120",
"e  c #634422",
"r  c #644B22",
"t  c #6B4A22",
"y  c #6A4B27",
"u  c #744D22",
"i  c #714E2A",
"p  c #655023",
"a  c #695226",
"s  c #6C542B",
"d  c #6F592F",
"f  c #7B5324",
"g  c #7B5629",
"h  c #78562B",
"j  c #735A2E",
"k  c #714C3C",
"l  c #6E5830",
"z  c #735434",
"x  c #735C34",
"c  c #7C5E35",
"v  c #745C3C",
"b  c #7A5C3A",
"n  c #756136",
"m  c #76613A",
"M  c #7B653C",
"N  c #7D683F",
"B  c #6D3D4D",
"V  c #724B49",
"C  c #74524C",
"Z  c #7E6941",
"A  c #8F5110",
"S  c #89561D",
"D  c #995B15",
"F  c #9C601A",
"G  c #A96818",
"H  c #875B27",
"J  c #8C5B23",
"K  c #845C2B",
"L  c #925D21",
"P  c #825D32",
"I  c #89612D",
"U  c #946327",
"Y  c #9A6526",
"T  c #8B6532",
"R  c #82643C",
"E  c #84693D",
"W  c #8C6938",
"Q  c #926734",
"!  c #946A33",
"~  c #9B6D33",
"^  c #946E3A",
"/  c #987037",
"(  c #9A733B",
")  c #A56C25",
"_  c #AB722B",
"`  c #B57727",
"'  c #B37A2D",
"]  c #A37434",
"[  c #A87736",
"{  c #A57A3D",
"}  c #AC7D3D",
"|  c #B57D34",
" . c #876B45",
".. c #836C44",
"X. c #846D49",
"o. c #8B7245",
"O. c #86714A",
"+. c #8A744C",
"@. c #947546",
"#. c #9D7942",
"$. c #92754B",
"%. c #90784F",
"&. c #9B7B4C",
"*. c #8B6B52",
"=. c #8A7551",
"-. c #8E7A53",
";. c #957553",
":. c #937C55",
">. c #9A7C51",
",. c #937D5A",
"<. c #A57C43",
"1. c #A27F4B",
"2. c #8B6A66",
"3. c #997C67",
"4. c #BA8134",
"5. c #B4823C",
"6. c #B9853A",
"7. c #BC893D",
"8. c #9B8155",
"9. c #95815C",
"0. c #9C845C",
"q. c #AA8345",
"w. c #A5824C",
"e. c #AC844B",
"r. c #AE884B",
"t. c #B28443",
"y. c #B48746",
"u. c #B58846",
"i. c #BC8B44",
"p. c #B48B4C",
"a. c #BB8D4A",
"s. c #BD914C",
"d. c #A48354",
"f. c #A88552",
"g. c #AD8A55",
"h. c #A3855B",
"j. c #A9865B",
"k. c #AC8D5C",
"l. c #B48D54",
"z. c #BA8F50",
"x. c #B29054",
"c. c #BB9254",
"v. c #B5915B",
"b. c #BB955A",
"n. c #BD995D",
"m. c #978462",
"M. c #9A8662",
"N. c #9C8965",
"B. c #9E8B69",
"V. c #9F837C",
"C. c #A38C66",
"Z. c #AA8C64",
"A. c #A18768",
"S. c #A28E6B",
"D. c #AC9165",
"F. c #A4906D",
"G. c #AC926C",
"H. c #B49565",
"J. c #B79967",
"K. c #BB9964",
"L. c #B2966C",
"P. c #B4996C",
"I. c #BC9D6B",
"U. c #A28975",
"Y. c #A69371",
"T. c #AB9574",
"R. c #AD9874",
"E. c #AB957B",
"W. c #AE9A7A",
"Q. c #B39B74",
"!. c #B89C77",
"~. c #B19D7C",
"^. c #BEA06B",
"/. c #BEA173",
"(. c #B6A07C",
"). c #BBA37D",
"_. c #BFA87F",
"`. c #C08C42",
"'. c #C1934D",
"]. c #C19653",
"[. c #C19A56",
"{. c #C29759",
"}. c #C29B5B",
"|. c #C29E64",
" X c #C39F69",
".X c #C4A166",
"XX c #C4A36C",
"oX c #C4A573",
"OX c #C6A875",
"+X c #C8A976",
"@X c #C1A67C",
"#X c #C5A97B",
"$X c #C8AB7D",
"%X c #A78C81",
"&X c #AE9488",
"*X c #B29B85",
"=X c #B49B8B",
"-X c #B6A384",
";X c #BAA584",
":X c #BDA885",
">X c #B6A28A",
",X c #BBA68B",
"<X c #BDAA8C",
"1X c #BAA493",
"2X c #BEAB92",
"3X c #C1A785",
"4X c #C4AC84",
"5X c #C8AE83",
"6X c #C4AE8B",
"7X c #C8B087",
"8X c #C6B18E",
"9X c #C9B28C",
"0X c #C1AE92",
"qX c #C2AE98",
"wX c #C5B294",
"eX c #CAB594",
"rX c #CCB897",
"tX c #C6B49A",
"yX c #C9B79B",
"uX c #CBBA9E",
"iX c #D0BD9E",
"pX c #CDBCA2",
"aX c #D1BFA1",
"sX c #CFC0A5",
/* pixels */
": * # . . . 0 Y ] l.g 4 s 4 4 4 8 j :.C.(.R 4 r ; % $ u 6 q 6 ( 1.k.g.;.H.J.&.{ q # X O : * u [ 0 K Y | Y p.l.;.oXv., , &   .   ",
"e - # : # $ K ! u.^ a y w w d N O.G.:.5 e 4 4 a j g ; c g y R y.p.t.~ w.e.c.K.r.<.u 1 @ O = u ] l.&.S ] _ Q Q 1.XX<.1 1 . .     ",
"2 # : u H 6 r.k.T.A.0.$.E %.W.7XG.6XZ.R m g 5 K v.J.z : ~ w.c.s.b.f.b.}.[.{.{.a.] ( { u # , % K b.].c.y.| ) S K P u 2 & O .   . ",
"2 : , T c.q.( I.rXrXrXI./.9XwX#X3XrXQ.>...W >.h D.B.l q } { 6.6.a.I.b.{.].|. Xi.y.a.<.} u f ~ ! t.a.6.} 1.`.l.H.<.S O O @ O . . ",
"e * + t D.XXH.d.4XrXrXwXP.J.8.f.@X~.K.I.$.R._.8.x n ..u t.i.7.i.b.L.{.{.{..X.X$X+X'.`.7.J H r.t.y._ A D <.`.|.[ S . O & .   . O ",
"y K u q g.OX9XT.o.*XtXyX8X(.D.L.~.C.R.9X(.6X;X:X,.o.H.L.d.s.'.i.'.c.{.].i.].$XuX X`.` ' | J Y i.z.` A u U | ].|./ & J Q = . % u ",
"z t g ; +.wXwX0X;.s =.W.:X4X;XC.T.C.6X3X7X3X:X8X3XJ.OX#X:.f.].].{.7X5X|.7.`.OX$XXX[.) } '.i.<.<.g.{.' [ ^ 1..Xp.P T 7.) , S y.| ",
"A.,.; ; s Q.0XuXeX$.B.W.T.(.uXwX6X,X0X0X9X9X8X4XoXJ.I.).T.Q.|.|.6XrXrX5XXXOXXX|.|.{.6.{. X]. X Xb.i.i.t.#.1.{.K H t.} ] 0 ] p.<.",
"B.!.&.1 s ..6XeXpX!. .3XuXpXtXeXyXuXtXpXpXpXrX6X5X).).:XeX7X^.6..X9XeXOX3X4X$XXXoX+X{.|.3Xj. XOXXX.X|.[.K.H./.x.a.s.^ L ~ u.e.v.",
"wX0X3.#.>...H.wX3X_.,.L.5X6XrXyXuXwXpXpXpXuXrXeX7X7X7X9XrX5X^.s.{.OX5X4XK.5X$XoX+X5XOX5X3X!.$X5X6X9XeX7X4X5XW.oXXX XW H l.a.5.6.",
"wX<XW. XK.,Xh.(.;XrXuXeX#Xk.4XyXtXtXtXS.2XuXyX9X9X9X7XeXrX9X$XOX+XOXyXeXOX5XrX9X3X$X9X9X5XtXeXuXuX5X9XuXrXeXI..X$XOXh.<.[.4.` ` ",
"tXuX0X(.I.(.Y.h.*XuX6XrX9X XoXeX2XtXrX-XwXpXyXuXuXuXuX9X9XuX9X5X5X5XeX9X9XyXrXyX6X9XrXeX9XrXrXeXuXuXeXeX5X5X.X#X9XT.W R oX'.4.| ",
"iXyX-X:X!.$.3X@X0XuX0XyX0X0X9XeXyXyXpXpXyXpXrXuXpXuXuXrXuXuX9X:X9XyXeX5X9XtXwXuXtX9XeX7X9X9XrXyXpXrXuXrX9X9XeX8XeXP.^ 0.&. X].'.",
"h.Y.wXyX,XD.6XeXyXuX0XqXtXpXrXpXpXpXuXuXyXyXuXpXuXyXuXuXyX9X9XeXrXuXrX9X9X9XyXuXpX6X5X5X7XeXpXaXuXrXuXrXrXpXuX8X4X(.n E M K.l.}.",
"s N wXpXeX;X@X0X6XpXpXyXpXpXpXpXpXyXyXpXyX1XpXpXwXyXrXyXtXeXuXyXuXuXeX9XrXuXpXpXtXtX9XrXpXuXpXpXyXpXuXrX9XeX^.9X9XR.p 4 0.$Xe.T ",
"M O.wXwX0XM.8.,.&XyXyXyXpXaXpXuXyXuXuXpXpXpXuXuXwXuXuXuXuXsXuXuXyXpXtXtXpXpXpXpXyXqXpXpXpXuXpXpXyXyXrX9XeXeX#XyX8XX.p -.:XrX.X@.",
"Z x F.:XN.d N.W.tXrXyXyXpXpXpXtX2XpXpXpXyXuXtXpXpXuXuXuXsXpXuXuX2XuXuXtXsXsXuXpXuXpXpXuXpXpXyXpXpXpX0X5XuXeXrXuXrX,.9.wXpXuX#X6X",
"m r O.Y.n v E.Y.<XtXpXpXuXyXpXyXyXyXtXpXwXyXtXuXuXuXuXsXsXuXuXpXpXuXpXuXuXuXuXuXuXyXuXyXuXyXpXpXpXyXuXuXpXuXuXyX<XW.wX0XrX9X9X~.",
"s w n 9.%XV.=X*XY.wX2XpXpXyXpXpXpXtXuXsXuXuXpXuXuXuXsXsX2XpXuXuXpXuXuXpXuXuXuXuXuXpXsXpXyXpXpXyXuXpXiXpXyXuXuX8XeX<X:X2X8X#X!.Q.",
"x w M Y.wXuXuXwXuXsXsXuXuXuXyXuXpXsXsXyXuXpXyXuXpXuXuXsX1XtXuXuX2XuXuXuXuXuXuXpXpXpXpXpXuXuXpXtXuXyXpXyXuXuXuXyXyX9.F.0XwX8Xd.N ",
"z d Z ;.m.-X<XtXpXpXuXuX2XuXuXuXpXpXpXyXpXpXtXuXuXsX2X2XyXuXuXuXpXyXtXpXpXtXpXuXpXsXuXuXtXtXpXyXpXyXtXpXuXpXpXtX2XN +.:X:X4X&.8 ",
"x d -.~.E.W.-X2XsXuX2XsXuXuXuXuXyXpXtXyXuXyXyXsXuXuX2XtXuXuXuXsXpXpXtXtXuXuXuXuXpXyXuXyXpX2XpXtXyXpXpXpXuXuXrXrXuX<X;X:Xh.%.a - ",
"$.o.:.R.8XwX<X<XuXuXuXuXsXuXuXuXyXtX2XpXpXtXtXpXuXuXsXuXuXuXuXiXpXpXpXyXuXuXpXuXpX2XuXpXpXpXpXpXpXtXuXyXuXyXpXeX9XeXeX4Xf.c.T $ ",
"C.T.S.wX/.J.<XyXuXuXuXuXuXsXsXuXpXtXtXpXyXtXyXpXuXuXuXuXuXuXpXuXuXyXpXpXuXpXuXpXpXtXuXuXpXpXpXpXyXpXuXtXuXpXuXrX9X5XOXP.b.[.q.5 ",
"Q.&XU.qX_./.2XtXuXtXpXpXsXsXyXuXpXyX1XtXpXyXpXpXuXuXpXuXuXuXuXuXuXyXpXpXpXpXpXtXuXuXpXpXtXpXtX2XyXpXpXyXuXpXyXyXuXpXeXOXn.r.x.w.",
"W.F.0XwX6X<XY.:XuX1XqXpXsXuXuXuXyXpXyXpXuXpXuXuXuXuXuXpXpXuXuXuXuXuX&XpXpXpXpXpXuXuXuXuXpXyXtX2X2XuXuXpXrX6X4XrXuXuX9XOXn.e.#.^.",
"-X*XqXuXrX7X<XyXuXtXyXtXuXuXpXyXuXuXpXpXuXuXuXpXpXuXaXsXuXpXuXuXuXuX&XpXpXpXtXyXuXpXuXuXpXyXpXuXtXpXtXpXyXtX7X9X9XXXOX#Xn.n.e.p.",
"2XuX0XtX#X#XyXpX>XwX2XY.wXpXuXeXuXpXpXuXuXuXuXuXuXsXpXyXuXpXuXrXuXuX2XtXyXyXtXpXuXuXpXpXyXpXyXpXtXtXpXyXpXuXyX7XOX}.7XrXK.x..X.X",
"W.<X9XOXc.d.wX<XM.<X<XF.rXuXuXeXpXpXuXuXuXyXuXuXpXpXuXuXuXuXuX9XuXyXuXtXpXpXuXuXsXpXuXpXuXuX<XuXtX2XtXuXuXuX8X$X+XD.<XrX8Xc.#X7X",
"=.F.!.p.c.T.<XF.S.2X>XyXuXpXuXpXsXuXpXuXpXuXuXuXuXuXpXuXuXuXpXrXyXyXuX2XwXpXuXpXpXpXpX2X2XuXpXuXpX2XwXpXuXpXyXyXuX~.<XpX7X[.w.E ",
"..C.d.@.x.:X*X<XrXuX<X>X2XyXpXsXuXuXpXuXuXuXyXuXuXuXuXuXuXuXsXrXrXuXuXrX9X9XeXpXpXuXpXyXyXpXpXuXuXuXwX<XyXpXpXpXeX9XrXtX:X/.R ; ",
"9.O.8.0.c T.(.<XyX<X2X2X2X2XyXuXuXuXuXuXpXsXuXpXpXuXpXuXiXsXsXyXuXrXuXyX9X.X#XpXyXuXpXpXyXuXuXuXuXuXyX-X(.yXwXrX7X!.<X;X6XuXC.; ",
",.9.Y.s s L.-XB.Y.9.W.-XwXpXtX:XuXuXwXuXsXsXuXuXuXuXuXuXpXpXuXuXyXuXpXuXuX$XOXuXuXpXrX9XpXrXrXpXuXpXtXpXwX-XF.#XeX8X;X~.0X:X).7 ",
"M v l w *.F.N.Z F.&X2XtXS.-XuXyXyXuXyXyXpXuXpXuXuXuXyXsXpXuXwX2XuXyXpXuXuX#XOXuXuXpX9X9XpXuXuXpXrXrXY.W.yXtX).6X7XyXyXwX).wXD.W ",
"x x a : M 9.3.2.F.E.<X%X2.>XuXyXuXuXyXW.tXuXuXuXuX<XY.2X:X<XM.9.#X9XsX2X<XK..XrXuXiXpXpXyXrXyXuX-X(.9.D.!.yXwXW.I.OX).:X-X>XG.n.",
"M m e s b Z C V B.=.M.C m.2XyXuXwXwXuXN.wX8X8XrXyXuX:X2XyX8X-.p W.yXyX;X<X^.|.rXpXuXuXuXtX;XpXuXyX*X-X4X/.wXwX0X6X.Xf.b ,.:.k.^.",
"=.a - y y r r k F.:.o.p d ..W.uX<XO.W.O.<X<X<X<X2X-XW.2XpXuX:Xn 0.4XwXeXrXXX.XeXrXeXrXrXeXeXeXyXaX4X7X9X5X(.W.W.F.8.6 $ : e 8 P ",
"m r 4 4 p e s Z 9.Q.8.p d 9.9.Q.N.n =.d 9.uX2X-XN.N 9.R.-X;X8.n l P.5XuXpXOX}.#XrXrXyX&XZ.H.8X4XyXeXeX(.|.x.8.:.Z p - * - # # + ",
"8 $ ; w 8 =  .B.X...+.t w O.9.Z p 3 p p d 9.~.2XB.d x Z M M a 8 r N H.4X^.4.i.OX+X$X4XB ;.Q.8X*X<XeXrX>X,X3X#XwX0X=.3 $ 3 - % * ",
": o + $ # 6 a X.O.Z +.a 4 d O.M p 3 3 p p d ~.-X9.Z N 9.M 0.M 8 ; 8 a T i.` 4.7.|.i.1.V k ,.8X8X9XeX).Y.F.B.T.D.M.M : $ + * ; @ ",
"i # % % ; x R :.O.O.:.E d p p 5 4 3 3 w p p Z Z -.n p s j @.p 3 + ; 4 7 i.'.7.` { 9 ^ g.~.W.~.).F.C.Z p n M j r 4 r 8 ; ; ; $ o ",
"y , = 1 P E M c j s j  .d s x : $ $ + 3 p r 9.B.N p 3 x m I g 8 - , # % H ! H 0 9 D 6.l.L.j.#.w.] ~ L U ! ^ t ; - $ ; % S % @ ; ",
"1 , @ % 5 x 0.8.O.j d 4 8 :.+.s p + - 3 - a =.9.0.j $ 4 e , f g > 7 7 7 X > D D G D S ! ] t.` ) G G G _ ) ! c ; 8 $ # o q Q T ^ "
};
