/* XPM */
static char *wall4[] = {
/* columns rows colors chars-per-pixel */
"64 42 54 1 ",
"  c #67696D",
". c #696B6F",
"X c #6C6E72",
"o c #717376",
"O c #74767A",
"+ c #76797D",
"@ c #797C7F",
"# c #7A7D81",
"$ c #7E8185",
"% c #808286",
"& c #83868A",
"* c #86898D",
"= c #898B8E",
"- c #878B90",
"; c #8A8D91",
": c #8E9195",
"> c #8F9398",
", c #919396",
"< c #93969A",
"1 c #96999D",
"2 c #999B9E",
"3 c #979BA0",
"4 c #9B9EA1",
"5 c #9EA1A5",
"6 c #9FA3A8",
"7 c #A1A3A6",
"8 c #A3A6A9",
"9 c #A6A9AC",
"0 c #A9ABAE",
"q c #A7ABB0",
"w c #ABAEB1",
"e c #AEB1B4",
"r c #B2B3B6",
"t c #B4B6B9",
"y c #B6B9BB",
"u c #B9BBBD",
"i c #BDBEC1",
"p c #BEC0C2",
"a c #C2C3C5",
"s c #C5C6C9",
"d c #C7C8CA",
"f c #CACBCD",
"g c #CDCFD0",
"h c #CFD0D2",
"j c #D2D3D5",
"k c #D5D7D9",
"l c #D7D8D9",
"z c #DADBDC",
"x c #DDDEE0",
"c c #DFE0E2",
"v c #E2E3E4",
"b c #E4E6E8",
"n c #E9EBED",
"m c #EBEDF0",
/* pixels */
"xlznmkyddglgfhlisjxdtugkzzjwdvkgi2ridkgfjauu0rur7iu000urrraurrrr",
"ja0wphjxzxvlsr4rdggggsfzjjsrsbxvgwisfxvbvir00ruuiiruru7000sg02,,",
"jjfr8skzhi9asr8yiizbkkgjggfgsigduikjkagfruggasfsiuatsjas0ui,@270",
"djfappe5er7uhsggga0zvgaiggzvj0077ugxku7227ugjkzgifu7gjgjsfi=2uiu",
"f7rds0,1rditsgkcxp>3uputsgxxjadgggzfuirwuuursxxddgia0,7rafr%,uji",
"ftgxftrpiuitr0pupat08psaajau0tuafkkrrsgkjddrru7,tiaf7,072au2272,",
"jpyhzzzlaii0700rrsdprrfgr7tiagdgjg0usfxbzzaijd70r07r777727=@,2,=",
"aw10znnjdga020iafxxspauprrtikbnnnf0sjzvr070ss0rsdr0720rrr0,2uu72",
"pir07:7uauprrr0rtajjkgppkxfuahbzr4uisxj000w7==,rjdir0rfka00akfuu",
"hir7**$:22ussat7<&,ifurwpapaaja27uzksu40gi70770ri02,2rsr===22%,7",
"i334798ryrsssffu02;,3rtu0;4rt0,7udzi02,7uwuiisgi2=,7r02%%2rr=%%,",
"0paupifduriaurfft07470sfrwtit90rtr2,70000rfjkji7270sf7220rai70ia",
"i48idagy92,2=O@7itutssfhusjaiffsdr27uat070ris7=8r0rga0rraaf=o,00",
"i$**<2<yiw,,22,28iiraxvirassshkstruidar00022<200,,07=rsjgguo%=,o",
"u87112:igu879rr8wffi070<774474590ukxs70007442ri070r,=,0a0,%%,,,%",
"apituau9saipi0<02rgiw2,0ttw4412wdgr740rtwr2777wiuu077uu=@=2070,,",
"tufhkkr@*pjva717e47wrrygkkituyrydi440uasu92rau047277ij7=,7u07rra",
"a2,5882<&>eaputww5>575<9atajkksir20uit8tu70ruuw<227rgu%2<,0%O%,0",
"e<487=5r9%#;pfkzd000i044;>0xvr003<ua744429ut222470rsz,,722=o%,,O",
"w8ufr<2w8;#o<8wgfpiudpi5585725rr708347880rutwtur77ru7%7r42,=2w=%",
"fupp752<15>#:4&$;wiiii9iaai75etrui4200080uagkkdirur2==u0770rsu@%",
"w44#=245480<;4:->>w5&>6eir9wtussfu70er04<7uit4:272,=,=222777r=@,",
"9<$#;8wwiii84wqww6>888iu77tt7179847745<247<,*=33,222222,7i077@=0",
"7833wwipffuitshhu4:9iuai78978874<<7ut7700942277777ruu0247,&,=%=,",
"8*4ei4<-<994>;1w544<3331<1<38iq1444ii70070r9900titust4784==<,,&=",
"u705&;*$##&<;>;=;8q<34147wti78580004348877r090eet0><;<744747,=%=",
"ddd<=<q63><9wq8><>3443>13iduw88qtue4<3470029uaae7<<<<,><,275,=>2",
",$;>3<6pq66ikf8386<458645637qq874753557577<30u0477347774,,,=,0t8",
",. 388558648ii8iuw544864463340q6333700wrw44543;<43<47rt1<44=,wr1",
"9;#<iuw=&>$#X&5w4;706<<<<1<<1348570eiiisr8w0tr423<<327548r0>442=",
"a4$%4771><3>%$;33>9w3<<4433445748w080tit0rtuu8444432rw2>0sr72,,%",
"7=$###%7ii83>;;qw6448967qq0wq9745800885447774244778708150021=>2;",
"6$$*&&<$<311<<1$5$&6yeq6taddq889qqeyw6588898qq947tai9<20r1:;>465",
"6$611363$&19642134$466654rde69wyteeeqeqweweeqq888euy2788,,554:>:",
"eqeyee6$-$6yqqqq9564$631$$1<5wryyrw88rq688460850r0412282:159;%;,",
"61eaq<11$1-1<-1q41$14699qw2149867wee077q8733899wy04577y72552$%,2",
"1O.O$&$><<-&-&O*11<314eip844569ittssireeqq88qre9008867099842<=11",
"t1&@$$$624<<<<;<135694$924wq668r09tsfauuiieqq93585887<298<,15<21",
"eeq4$$&1<$11145419eee645$9pu8865897578wwrr77997998782;282$:46652",
"-.*e1&+$$@*$161$$6yae66994988q88wrr80itrw75790qte9601:57511791=:",
"-o.o$$$3*$&-;9q6631666665414wwqeisiiiieww979q09ww889916985657:&$",
"<@OO*-<66$$4;-qy611$<6699q8wyyppiipeie0ee00wq088889yt58q99741,:1"
};
