/* XPM */
static char *wall5[] = {
/* columns rows colors chars-per-pixel */
"64 43 193 2 ",
"   c #061B3D",
".  c #081B3C",
"X  c #041E41",
"o  c #091F40",
"O  c #062245",
"+  c #0A2344",
"@  c #052549",
"#  c #0B2649",
"$  c #062B4E",
"%  c #0B2B4C",
"&  c #102947",
"*  c #122D4D",
"=  c #182F4A",
"-  c #093A46",
";  c #0E324F",
":  c #073948",
">  c #0C3D4C",
",  c #15304D",
"<  c #1C344E",
"1  c #052D53",
"2  c #0A2F51",
"3  c #132E50",
"4  c #053255",
"5  c #0B3254",
"6  c #0B3D53",
"7  c #05345A",
"8  c #0B365A",
"9  c #053B5C",
"0  c #0C3C5D",
"q  c #143353",
"w  c #193553",
"e  c #133B56",
"r  c #1C3A55",
"t  c #113759",
"y  c #133C5B",
"u  c #1C3D5B",
"i  c #213C55",
"p  c #213E59",
"a  c #053E61",
"s  c #0C3E61",
"d  c #143E61",
"f  c #183F60",
"g  c #0B434E",
"h  c #0D4253",
"j  c #07415F",
"k  c #0C415D",
"l  c #0F485F",
"z  c #134454",
"x  c #1D4056",
"c  c #174857",
"v  c #14435D",
"b  c #1B445C",
"n  c #14495D",
"m  c #1C4B5C",
"M  c #1C525F",
"N  c #244157",
"B  c #23445C",
"V  c #29465D",
"C  c #244A5E",
"Z  c #2A4A5E",
"A  c #21505F",
"S  c #074161",
"D  c #0B4363",
"F  c #074865",
"G  c #0E4A65",
"H  c #0C4669",
"J  c #0C4C6A",
"K  c #144363",
"L  c #1A4463",
"P  c #134B63",
"I  c #1B4B62",
"U  c #11466A",
"Y  c #1A4769",
"T  c #124B6A",
"R  c #1B4B6A",
"E  c #0F5067",
"W  c #0E516C",
"Q  c #145166",
"!  c #1C5264",
"~  c #1E5867",
"^  c #13536B",
"/  c #1C546A",
"(  c #15596E",
")  c #1D5A6C",
"_  c #0D4E70",
"`  c #0E5372",
"'  c #0B5B76",
"]  c #0F5678",
"[  c #0E5D7C",
"{  c #115573",
"}  c #185673",
"|  c #135976",
" . c #185C73",
".. c #135C7B",
"X. c #185D78",
"o. c #244660",
"O. c #234C62",
"+. c #2B4C61",
"@. c #314E63",
"#. c #245264",
"$. c #2B5364",
"%. c #245964",
"&. c #2A5867",
"*. c #235569",
"=. c #2A5769",
"-. c #235A6C",
";. c #2B5B6B",
":. c #335465",
">. c #335867",
",. c #375768",
"<. c #325D6B",
"1. c #3C5C6C",
"2. c #265D71",
"3. c #2A5E71",
"4. c #0D617E",
"5. c #12607C",
"6. c #2D616D",
"7. c #33616E",
"8. c #3B616E",
"9. c #2D6374",
"0. c #2F6579",
"q. c #346472",
"w. c #3C6572",
"e. c #346976",
"r. c #3C6A75",
"t. c #326778",
"y. c #346B7B",
"u. c #3C6C7A",
"i. c #39707F",
"p. c #40616F",
"a. c #426572",
"s. c #446B75",
"d. c #486F77",
"f. c #446E79",
"g. c #496E7A",
"h. c #497177",
"j. c #44727C",
"k. c #4C747B",
"l. c #4B787E",
"z. c #51757C",
"x. c #547A7D",
"c. c #105E80",
"v. c #0E6481",
"b. c #0D6985",
"n. c #0F6A88",
"m. c #366F80",
"M. c #3B6E80",
"N. c #3C7383",
"B. c #437584",
"V. c #4C7682",
"C. c #447886",
"Z. c #4B7983",
"A. c #447B88",
"S. c #4B7C8A",
"D. c #507782",
"F. c #547C82",
"G. c #5A7F82",
"H. c #537D8A",
"J. c #47808C",
"K. c #4C818C",
"L. c #578084",
"P. c #5C8385",
"I. c #53818B",
"U. c #5B858A",
"Y. c #5D898E",
"T. c #558592",
"R. c #5C8895",
"E. c #5D9099",
"W. c #618686",
"Q. c #618789",
"!. c #62898A",
"~. c #6A8D8B",
"^. c #6F928F",
"/. c #648A94",
"(. c #638E95",
"). c #638D9A",
"_. c #649096",
"`. c #6B9296",
"'. c #66929B",
"]. c #6B949C",
"[. c #6E989E",
"{. c #71999D",
"}. c #6697A0",
"|. c #6C94A1",
" X c #6D99A1",
".X c #749CA3",
"XX c #789FA8",
"oX c #7AA2A5",
"OX c #7EA5AB",
"+X c #83A9AE",
"@X c #87ADB1",
"#X c #8CB1B3",
"$X c #93B5B7",
/* pixels */
"|.|..X|.).)./.H.a.V.g.a.1.B.p.,.p.1.,.@.i V @.V < < < < = = < 3 3 3 3 < < + o . o o o o o + # o o o . . O O   X   X X X @ $ 1 1 ",
"|.OXOX.X|..X`.D.p.D.V.g.a.a.a.1.,.1.p.,.V i @.@.V V i i = = p q 3 w 3 & o o + + + # + + + + # o o o . o # + O + X X O @ @ 1 7 7 ",
"#X@X+X XXX{.`.`.D.D.V.g.a.1.a.a.1.1.p.1.V V @.@.@.i V V i i r w 3 3 & o + + & & # # # # # # o o o X o o # @ # @ @ O @ @ 1 1 1 7 ",
"$X@X$X+X.X`.{.`.D.D.a.g.a.B.a.a.a.d.p.p.@.i V @.@.@.V V p p w * < 3 3 & & # * = 3 # # o # + o o o X o o # # # % @ # @ 1 1 7 7 7 ",
"+X@X#XoX{.(.`.H.8.s.a.z.D.D.a.a.d.a.a.p.:.B +.@.@.@.V V i i w = * & * 3 & & * * 3 # # o # # o o o o o # % % # % # # # 3 1 7 7 8 ",
"OX+X+XOX{.(.U.g.a.g.d.z.G.G.z.g.a.a.d.p.:.V +.@.@.@.V V i V w = * * * 3 * * = = 3 3 3 3 3 3 % # * # o # 3 % 3 % 3 1 1 1 7 8 7 8 ",
"+X|..XoX].`.`.L.F.s.d.G.G.z.z.g.z.h.s.p.1.+.V Z @.@.V V V V i w = 3 = = 3 w w w q 3 3 3 3 3 3 3 3 q # # X # 3 2 1 2 1 8 8 s 7 s ",
"XX|.|. X`.`.`.~.D.z.W.^.G.z.z.z.z.s.p.s.1.:.C B V V V V V V i i w = q w q w w w q 3 3 3 3 q 3 q q q % o @ @ $ 2 2 2 8 8 8 8 7 8 ",
" X_.[..X{.[.].!.U.Q.~.~.~.P.G.x.x.d.p.s.p.,.+.V Z Z B V B o.B r w w w w q w w w 3 3 q q q 3 3 q t t % $ % % $ $ 1 2 3 4 4 1 8 s ",
"R.T. X.X{.`._.Y.H.G.G.Q.~.~.~.W.x.h.h.d.d.p.:.+.B x < B o.B x r u u i w w p w w 3 q 3 f t t f q t y 5 % 5 t ; 5 2 $ 1 1 1 1 8 8 ",
"T.T. X[._.(.Y.L.k.z.x.W.~.^.~.W.x.k.k.h.z.a.+.+.Z N r B V p r r r r i p u u w w w t q t t f f f d y q $ 5 5 $ , 3 1 1 1 1 1 s s ",
"'.H.'.U.U.Y.Y.F.k.H.W.!.W.W.W.x.x.x.x.k.d.1.$.+.Z Z B B u r e < i i o.o.u w w t t t 3 t t d f f d f 5 2 % $ $ t 8 8 8 5 4 8 7 s ",
"}.B.T.H.Z.I.Y.I.L.!.Q.P.W.x.d.z.k.x.k.k.s.>.Z Z Z V r x x < r r i p o.p i r w w w q q t f f f f d d t 5 2 $ 2 5 8 t 2 1 8 d s s ",
"}.S.S.Z.Z.Z.F.L.L.!.W.P.G.x.z.z.k.k.k.h.8.>.Z Z Z V < x r r r x o.o.o.p r w w w f t t w f f f f Y f t 5 2 2 $ 5 2 4 5 s d s s d ",
"}.H.S.V.j.Z.l.L.P.P.W.P.x.x.x.x.h.k.h.r.>.A Z C N N A N r x B +.o.o.o.p u w u f w q f f f p f f Y L d 5 5 8 5 2 4 8 s d d s U U ",
").S.I.j.j.l.L.!.Q.Q.P.x.x.k.x.h.h.h.s.8.>.:.Z C N A Z N B o.B o.o.o.o.p u i u p f f f u f f Y f Y Y f t 8 t 8 8 8 t s s d d U U ",
"R.B.I.f.r.f.F.L.!.!.L.L.x.h.h.h.h.h.8.<.>.$.Z Z Z $.$.Z Z o.O.B B o.B p r u r u u y u u u f Y o.Y Y L f t d 0 0 0 t s d K T U U ",
"T.B.S.j.q.j.L.L.!.W.L.L.x.h.h.h.h.r.w.r.>.A Z $.Z $.$.+.O.C B x B B o.u u p u u u u u u u L L Y Y Y L L t 0 0 s 0 s d s U T U U ",
"E.B.S.K.j.j.Z.U.P.x.x.x.h.h.h.x.h.r.r.r.>.A A $.$.$.O.+.+.C B B o.L B u r u u u f u y f f f L L Y Y Y L y 0 0 0 0 0 s K U U U H ",
"}.T.A.I.Z.r.l.Z.l.h.l.k.h.h.h.h.h.r.s.r.>.N Z $.$.=.$.O.o.C B C o.o.o.B r r r u u u u u L L L K K L Y f y 0 d s d 0 0 s U H a H ",
"[.J.A.K.i.7.j.l.j.j.h.r.w.w.f.s.h.s.u.8.<.A A Z $.$.#.O.o.o.o.O.o.o.o.L u e r r o.f f f Y O.Y K K L K v y K K K 8 8 0 s s H H H ",
"E.J.K.A.e.q.u.Z.l.r.7.r.w.8.s.f.f.s.u.6.A A A Z O.#.O.O.m B I O.O.I o.o.r q e e f f f f L O.Y L K Y L K K K K K 0 0 s s s U U _ ",
"T.J.J.C.e.9.e.Z.f.w.7.w.w.6.8.f.r.r.8.%.&.Z A Z C m O.o.x u t e y b o.u 5 ; ; e f L L L Y R R Y K L Y K K K K T D D D D U _ U U ",
"J.m.A.B.e.;.q.r.w.7.7.>.6.A &.<.<.6.7.&.&.A A A b b I m b y e t t t b y 5 ; ; t L L Y I T R / Y K K T K L K P R T K U U H a H H ",
"C.m.N.N.u.9.7.q.7.7.<.;.;.#.$.<.&.>.&.$.#.O.#.C b z x m I b y v y z b b t 5 5 6 v y K K T / } R K K K D 8 y t P T P U D G H H H ",
"A.y.m.N.u.7.w.r.e.u.w.7.<.;.%.=.&.&.=.;.*.O.O.I C c b x x b u v y b b b t v v y t 0 d I Y R R K 0 0 U H 4 4 7 9 0 0 D D D J J _ ",
"A.y.m.m.y.;.;.;.7.u.7.q.q.q.;.! =.-.=.*.O.I m O.O.O.O.b b x v v v e b v t y L v v v I I Y P D 0 9 7 a a 9 7 6 4 9 9 k U H H ` ] ",
"A.y.t.y.q.&.&.%.;.7.6.e.r.<.;.=.;.=.=.I L m #.O.#.#.O.m b u v v y e v y y 0 y 0 D K Y P U U D a 9 7 a S 9 9 7 9 9 0 D J J _ ] ] ",
"B.0.y.y.7.&.&.&.&.;.6.8.w.7.;.=.3.=.*.*.L K O.#.C ! I O.b b K v v v v y v 0 0 0 0 0 K U T U H a a 9 7 a 9 S 0 9 8 S S F J _ ] [ ",
"M.2.2.y.q.%.&.&.&.&.6.;.6.6.q.;.3.3.*.O.I L *.*.#.%.O.b b b b m I I L b v v K y 0 0 0 D K S 0 s a a a a a a S j j H S H H _ ] ..",
"M.2.2.9.q.;.;.&.&.;.6.A ;.;.;.;.3.3.*.*.*.I *.=.#.#.O.b v b b b b y y v v v v y 0 k 0 0 D s s S 9 0 a a S a S D D D S D H J ` ` ",
"M.t.t.0.0.7.;.%.&.&.&.&.%.6.;.;.=.=.*.*./ I I *.*.*.I b b m o.v b e e e v y k K K D 9 7 0 0 S 0 0 D S a S j H D G T ^ | X...` ` ",
"e.~ 9.t.6.6.;.%.A &.#.&.;.2.2.9.3.2.*.-.*.I I *./ I L v m I o.b v b b y v v v K k 0 8 7 6 0 D D k D K D H F J T ^ ^ } } ..X.c.c.",
"=.n P ~ ! *.%.C M m m A %.;.;.-.2.*./ *./ I R I / I v u b m L m m v v b v v v 0 k 0 9 9 9 9 j S j S j U D J H { T { { | ..c.c.c.",
"/ k h l n z v c c m O.#.#.*.*.! *.R ~ I I I I / I I m m I I I I m b v v v y v k 9 9 a S 9 9 S 9 9 9 j G ^ T J ^ } { { | ....X.c.",
"~ h 6 h h h 6 z z b c m *.=./ ! I / *.P K P I I R I I I I B m I I I L m v v K k k K D 0 9 S G 9 7 9 a G { J ^ { X.| ] { X.......",
"I 6 6 6 h h h h h b z c m -.-.*.( I ) I U P P c ! I I I I I C I I I I I P D v k l P K D F k l j 9 j H F G J J { X...| ` | | ..[ ",
"A > 6 h h 6 h n n z c m c ! -.-.-./ / ) / / ! P I ! I ! I I m P L P I I I n K n P G G G K F j j j G G F F T _ J { ` { { ....5.[ ",
"m : : h 6 > > h c z c c c ~ %.) ~ I P ) / / ) ~ ! Q / R P I P P P P v n P n P P Q P P l G G G F F F F F F G ^ W J _ ` ' ....4.v.",
"m : g h z h g h z z z c m ! -.~ ! ! I I ~ /  . .Q P Q ^ P Q / Q n v P P n n P Q G Q G G G D G F G G k F F J T W J _ W ` ..[ v.n.",
"A g g g g g - g z z z x z c ~ ~ *.! ! ! ! ) ) Q Q Q ( ( n G Q Q Q Q ( ( Q P Q Q W Q W W E E G Q ^ Q G F G G E W W _ W ' ' 4.b.n.",
"6.g g g g g - g g z z g z c M M n ! ! m ! ) ) Q Q Q Q Q n n l Q Q (  . .( P Q ( Q P Q G E E W Q Q Q ^ G E E W W ' W W ( ' v.n.n.",
"M g g g - - - - - g - g c c M M ! M n M M ( ) 6.Q Q Q n l n l l P Q ( ( Q Q Q / Q Q P l E E E E W G E W E E ` | ` ` ` 5.' 4.v.b."
};
