/* XPM */
static char *wall10[] = {
/* columns rows colors chars-per-pixel */
"64 40 19 1 ",
"  c #A4A4A4",
". c #A9A9A9",
"X c #ADADAD",
"o c #B3B3B3",
"O c #B7B7B7",
"+ c #BABABA",
"@ c #BDBDBD",
"# c #C2C2C2",
"$ c #C5C5C5",
"% c #C9C9C9",
"& c #CCCCCC",
"* c #D3D3D3",
"= c #D5D5D5",
"- c #DBDBDB",
"; c #DFDFDF",
": c gray89",
"> c #E7E7E7",
", c #E8E8E8",
"< c #EBEBEB",
/* pixels */
">>>>::>:>:::::;-;;---=-*=;;;;-;---=;;-;%@%**%==--***=**@#%&*#%*&",
">>>:>::>::::;;-=---***=&&;;;;-;-=**--;;$o$&*%=---*===**#%&&*#&*&",
">>>>>:::;--;;=*%%*&&$#$$&&=;==--*$%%*;-%Xo@#$=---&$=-=&$&*&$@&*&",
">>>>>>>:;:;=*-:;%$-;-##-:-%&-;-=*-:=%&=-=@o&;;=*&&%$&&&%%%$#@+#%",
">>>>>>::>:>:;>:>:;>::;;:::-=::;-;;;;-$=;;-%--;;$&==*%=**&+@$$@O$",
">>>>>>>:>>>::>:>:::>:;::::;-:::;;;:;-%=---&-;;-%*===*=**%O++++o+",
">>>>>>>>:>>>::>>:;::::::::;;;:;;;;;:-&-;;-&-;;-#%==*%=*%#o.XX...",
">>>>>>>>>::::::::::::;;::-==-:;;;;;------=-=-=**$%&***%$%*%X @&&",
",,,,,,,,>>>:>:;:>>:;::>:-*----::::==;;;**---==---&&=**%&==-*%=-=",
"<,<,,,,,>>>>>::>>>>:>>>>=*-;-->::>==;::**-==&***=&&*&&$&*===*===",
",,<,,,,,>,>>::-:>>>;:>::=$=;;;:>>:==;::*%==&#@$%%#@$$#O+#&==*--=",
",,,,,,,,,,,>:-;:::;;--;;;&%=;;;::;-*=;;=$#$$&@oo@%#oXo#$.+&**=-=",
",,,,,,,,>>>>:>>>>;:,>;->>>-&-;;;;:::-=:::*%;:;&+*-;%+=;;=#%*--*%",
"<<,<<,,,,>>>:>>>>:>,>>:>>>>*=;-=;:>::-:>:;-:;:;&*-;-=;;;:*%*=-*%",
"<<<<<,,,,,,,>>>,>:>>>>:,>>>%*-=*->:>:-:::;;:;;-@%=--=:;;;*%=--&$",
"<<<<<<<<,,,>>>,>::>>>:;>,>:&$%&*==;:--:::;;:;-&@O%===;;;;*@&=-&@",
"<<<<<<<,<<,,,,::>>>:;:::;::>-%=>>-*=-;;;;;;;=*;:*#&-;;-;;-*$%=-=",
"<<<<<<<<,<<<,,>>,>>>;>>>:>>>>:>>>,==;::-:::;=:>:>-*;;;=;;;;-%*--",
"<<<<<<<<<,<<,,,,,,<,>,>>>>>>::>>>>-=;;;-;;:-=:>::;=-;;=;:;;-$&=-",
"<<<<<<<<<<,,<,,,,,,,:>>>::>:-;>>>>--;-=&&==**::>:;-;;=%*;::=O#==",
"<<<<<<<<<,<<,,,,>>,,,,>>,>:;;>:>:;:;-=-:;%$-:::::;;-**--*=-;*++%",
"<<<<<<<<<<<,,,,<,:,<,,>,,>::,,,>=;:>;:>>>:;>>>:-:::;=:>>:*;::;%=",
"<<<<<<<<<<<,,,,<,>,<,,>,,,,,,<,>=:>>::>>>>:>,,>-::>;;::::=;::;-=",
"<<<<<<<<<<<<,,<<>:,,,>>,,,,,<,>>-:>>:>,>>::>>>:&-:::;>>:>-;:;:--",
"<<<<<<<<<<<,,,,,>,,,,,,,,,,>>>>:::>::::>>:;:>::-*=:;;:>::;;::;--",
"<<<<<<<<<<<<,<,,,,,,<,,<,,>>::::>>>:>:;;>>::-:>,:=-:::-::::;*=-;",
"<<<<<<<<<<<<<,,<,<,<<<,<,,>>>::>:::::>::>,>>->>>>;-:>:-:>:>;&=-;",
"<<<<<<<<<<<<<<<<<<,<,<<<,,,,>--:;;--;:::>>>:->,,>;*;>:;:>>>;#&--",
"<<<<<<<<<<<<<<<<<,<<,<<,,,>:-:-**-;;*-::>>:-;>>>>;%*::;:>>>;#@&=",
"<<<<<<<<<<<<<<<<<<,<,<<,,,>:>,>:-,><;=:>:;;>>>::>,>-=:>:;::>:&$=",
"<<<<<<<<<<<<<<<<<<<,<<<<<,,>,,,,,,,<>-:>>;,<>,>:,,,,-:>>;;>>>>--",
"<<<<<<<<<<<<<<<<<<<<<,,<<,,,,,<,,,,,>;>>>>,,,,,,<,,,;:>>:;>>>>--",
"<<<<<<<<<<<<<<<<<<<,,<<<,,,,>,>:,,,,>:>>,>:>>>::>,,,;>>:;;>>>>;;",
"<<<<<<<<<<<<<<<<<<<<<<,,>,,,>::>:,>::>>:,,>:>>:;:>>:;;;;:>:>:::;",
"<<<<<<<<<<<<<<<<<<<<<,<<>,,,,>>>>>>>>,>>,,,>::>>>:>>>;;>,,,>-::>",
"<<<<<<<<<<<<<<<<<<<<<<,<>>,,,:,,,,>,,,>>,,,,:>>>>:>>>::>,,<,-::>",
"<<<<<<<<<<<<<<<<<<<<<<,<,,,,,,,,<,,,,,>:>>,>,,,,>>,,,,:>,,,:-:>:",
"<<<<<<<<<<<<<<<<<<<<<<<,,,>,,,,,,,,<,>>,,,>>,,,,,,<<,,>,,>>>:;;;",
"<<<<<<<<<<<<<<<<<<<<<<<,<,,,,<,,<,<<,,,,<,,,,<<,,<,,,,,,>:,,,>:,",
"<<<<<<<<<<<<<<<<<<<<<<<<<<,,<,,,<<,,,,,,,,,<,<<,,,<<,,,,>>,,,,,,"
};
