/* XPM */
static char *wall3[] = {
/* columns rows colors chars-per-pixel */
"64 43 86 1 ",
"  c #B8B8B8",
". c #BABABA",
"X c #BEBEBD",
"o c #BEBEBE",
"O c #BFBFBF",
"+ c #C0C0C0",
"@ c #C1C1C1",
"# c #C2C2C2",
"$ c #C3C3C3",
"% c #C4C4C3",
"& c #C4C4C4",
"* c #C5C5C5",
"= c #C6C6C6",
"- c #C7C7C7",
"; c #C8C8C8",
": c #C9C9C9",
"> c #CACACA",
", c #CBCBCB",
"< c #CCCCCC",
"1 c #CDCDCD",
"2 c #CECECE",
"3 c #CFCFCF",
"4 c #D0D0D0",
"5 c #D1D1D1",
"6 c #D2D2D2",
"7 c #D3D3D3",
"8 c #D4D4D4",
"9 c #D5D5D5",
"0 c #D6D6D5",
"q c #D6D6D6",
"w c #D7D7D7",
"e c #D8D8D8",
"r c #D9D9D9",
"t c #DADADA",
"y c #DBDBDA",
"u c #DBDBDB",
"i c #DCDCDC",
"p c #DDDDDD",
"a c #DEDEDD",
"s c #DEDEDE",
"d c #DFDEDE",
"f c #DFDFDE",
"g c #DFDFDF",
"h c #E0E0DF",
"j c #E0E0E0",
"k c #E1E1E0",
"l c #E1E1E1",
"z c #E2E2E1",
"x c #E2E2E2",
"c c #E3E3E2",
"v c #E3E3E3",
"b c #E4E4E3",
"n c #E4E4E4",
"m c #E5E5E5",
"M c #E6E6E5",
"N c #E6E6E6",
"B c #E7E7E7",
"V c #E8E8E8",
"C c #E9E9E8",
"Z c #E9E9E9",
"A c #EAEAE9",
"S c #EAEAEA",
"D c #EBEAEA",
"F c #EBEBEA",
"G c #EAEAEB",
"H c #EBEBEB",
"J c #EBECEB",
"K c #ECECEB",
"L c #ECECEC",
"P c #EDEDEC",
"I c #EDEDED",
"U c #EEEEED",
"Y c #EEEEEE",
"T c #EFEFEE",
"R c #EFEFEF",
"E c #F0F0EF",
"W c #F0F0F0",
"Q c #F1F1F1",
"! c #F1F1F2",
"~ c #F2F2F2",
"^ c #F3F3F3",
"/ c #F4F4F4",
"( c #F5F5F5",
") c #F6F6F6",
"_ c #F7F7F7",
"` c #F8F8F8",
/* pixels */
"~//~^E^EEE^^^/!^IIII!E!/)^///)//!!/E//!!!I!/)////!!!!!!!EI!!!!!!",
"T~ET^E^^EEEIE^!^II!IIIE^/!^//!//!I^!EI!I/II////!!!!EISSIII!!!!!E",
"~ST~^E^)^^EE^/!^EIIBSI!!!!^!!!!!!!^!/!!!!/E!//!!!ISjmpm!!I!!II!!",
"^~TE^^(^^^EE^/^/!SSmSII!!E!!!!IIG!!////!//!SmImIISIIIxSII!III!II",
"~~~T~~)^^^!E//^//!SIIG!/!!/!IISSNGEI!!I!/^/!SvSSpSSIIIIIIGSGIE!I",
"EE~E^^))/)/^/)))^/!!^II!E!^ISSSjjjmI)IS!/!!EISwmqSISS!!IIIGII!II",
"EE^^/)))))//))/^/!II!ISISGI!SNSmmmpmIIS!^I!Imq1w>jmxxII!!EIIIIII",
"~TE^^)/)/^^^//!^//!!!!IIISISSSSSSIjgSI!!!Ijjp003www0mSGINGGSSIIG",
"^!I!/_//////)^!!////)/!I/ISSIIISSSjmI!!!IIj01wjjm0wwjmSISGSSGGIG",
"!!E^/)/^!^//)/!^//_)!/!!IIIII!SmNIIII!ESSSImqppjw3tpjGGIIGIIEEEI",
"!!//)//!!!/^/^^!////!/^!IE!/!!ISS!!II!SmmjmS>wt>6wtjBSGIIGIEEEEI",
"!!/)))/I!!^!!^!E!///^!!!!!!!^IIIIIIISSmmmmpm1pw30tSIISGIIEIGEEEI",
"^//)//!I!IEE!!^E!_/!^!!!!!!!ESSSxxjNmpqjmmvjwjjjjvGImIE!!!^EIGGG",
"!!!^^!ISIEI!!I!I!!/^!!!EIIIIISvxsjjpww60pjmjjjjppgjmSIE!E!!^!!!E",
"IIBSII!IIEGSvvBBSm!!!!IIIIISSSSgmmjw0>1>*1>3jmmwpq7txjIEEE!IE!^E",
"GSmmSSBISjgmjpvppmI!!!!!!!ISmGmmSmjxp3>>>o..1wjp0pppjwgIEIEEE!!E",
"IImmGSvmmjjmmsjwwmSIISI!GISSSmmjBSGjgm>*>=+=27tvpjmvmmvSBSIGIIII",
"IE!ISSmmmmSSmjtwjmmSjSS!SmSIISpjG!GjNIw1qp>0mmSISSmSSSSSBNSGSGGG",
"II!!E!!!IG!IImt0jSmmwpmIBjSIISpj!!SmSGjtmvt6tSEEIIGIIIIBjmBSmBBB",
"!!!I/!!!!S!!ppjpvmppjpmImjjBSIsm!!SjmmtgggvqpBIEIEGIImBBpsjjvNmm",
"!E!!!!!!II!Ijpmjjjpppjmjmmmm/ISII!SgmNSSSvjggNSGIIGIISSjgwqtgvmm",
"!!!/!!!!ISIISmmxjxjpwpjjmjjS_/!!I!GNSNSE!EIGEGBBmBmSGBBg723qpjsg",
"!I!/^!!!II!IISSmjjSmw0jjmmSS/!ImBEBmSmBIIIEI!EGSBmgpxjjt227qwspw",
"!!^//!^^EI!!!!ImSmjSmpjpISG!/ImmSISmGxmBSGII!EGGSBSpppp07qqqtq77",
"E!!/////ISIIIESmSSmBjjjm!I!///NIESmBmpxSGGISBGGBBSGpttq23ppqq076",
"EI/)///!mSIISSSNmmmvmNmI!!!///GSGSvmjpjvSGESggvvvBp74qt237tq73qq",
"!I/_)_!SSSISSSSmmjjmNmSI!I!!I!!ISNSmjjsjBGGBNgvgtg7-->7>qggqq37w",
"!!///)!SmSISSmmpsjmmjjmG!SISGIISIISISmjjvBEBNjvgqq2XX->>1tpqq0qg",
"!GE//^!ISG!IISSjpmjjppm!/!IIIIGSI!!IIIISBBSBBNgs7q2XX$>>2tgtgstt",
"EII//!I!!!/!ImSISSSmmmS!//!ISIII!!!!IE!!BBBBSvggtq>$$X$2ttggvBmv",
"III^/IS!//)^ImSSSSmSI!!/^!/!G!IIE^IEGIIIBZBBBvttgt2>:---7ggvjxvm",
"mSII/II!//)/IBmjmmmI^!/_!!//I/!!!/IIIIGSBBBBBgq7rt72qt27qvgtgggx",
"vSII^II///)!INmNmjmI!E/!/))^!E!E!!!!IIEISvsppjp312w037pswvggvvng",
"NI!I!I!/))/!ISImxjSSSBS)))_)^!!I!!!II!!IImpww0wwt03373wmvsvBBlnl",
"G!!!!!!//)//IIImNmmSBmI/)/^/^!!!I!!SSIIISNmpw000qt00110tjvNBbbnl",
"I!II!!!////!!!ISmjpwjvI!)!!^^I!EII!ISIIIIIxptjt37qqpp00pjSvxlBZn",
"EE!I!III!!!!I!ISmxp7tSSIIE!^^E^EIISIIE!IIINp0jsp020wjgjjvBBBTSSZ",
"!I!!!EISI!!SIIISBmtwjGNvBE/^^!^EISSISI!I!SmNsmjpppttspmSBBTE~TTS",
"!!!I!!SNS!IISI!IBSSmmSmmm!^//^EEmIIISI!IImwSSmSjpgvvpgxSLLTGLTTS",
"!II!/ImmSIISIISSSBSIISSSSE!/^^!EIIIIIIImSgwNSSImjxxjjmjSZLETETTT",
"IIS!!INSSSESSSmxNSN!ISBSGLE^^(^^SSI!SISmBppSSGSSnBBvgZBvnGGEEELE",
"III!/!SGSGEISSSjmI!!SvxmvGGLE^L^!SSIIIImNSSIIIIIBBvBvGBBBBGGLTEG",
"/!/!!!SISSEISNSmSIE!GmjpvGvBBGG^/!IIIIIISSSIIIIIGBvvlnvBnZBTETGB"
};
