/* XPM */
static char *wall8[] = {
/* columns rows colors chars-per-pixel */
"64 42 105 2 ",
"   c #040405",
".  c #06060A",
"X  c #07080D",
"o  c #0A0A0B",
"O  c #120E0F",
"+  c #060911",
"@  c #0B0D14",
"#  c #0C0F19",
"$  c #100E11",
"%  c #0E111C",
"&  c #121113",
"*  c #191414",
"=  c #12141D",
"-  c #16181E",
";  c #1A1A1C",
":  c #281D1B",
">  c #0F1521",
",  c #121621",
"<  c #151A24",
"1  c #1A1C25",
"2  c #161E29",
"3  c #1A1E29",
"4  c #1F2024",
"5  c #17202C",
"6  c #1C222D",
"7  c #1E2631",
"8  c #1F2834",
"9  c #222226",
"0  c #2B2827",
"q  c #22242C",
"w  c #28272B",
"e  c #27282F",
"r  c #2C2B2D",
"t  c #312D2E",
"y  c #212631",
"u  c #232A35",
"i  c #2C2D34",
"p  c #252D3A",
"a  c #292E3A",
"s  c #322F32",
"d  c #2C3037",
"f  c #26303E",
"g  c #2B323D",
"h  c #313136",
"j  c #3B3534",
"k  c #33353C",
"l  c #39373B",
"z  c #34383F",
"x  c #3C3A3E",
"c  c #443D3D",
"v  c #273341",
"b  c #2C3542",
"n  c #2E3946",
"m  c #2E3A49",
"M  c #313742",
"N  c #333A45",
"B  c #3B3D44",
"V  c #333D4B",
"C  c #393F4A",
"Z  c #413E42",
"A  c #36404E",
"S  c #3A424D",
"D  c #364251",
"F  c #3B4553",
"G  c #3E4856",
"H  c #3E4A5A",
"J  c #434146",
"K  c #4B4546",
"L  c #43444C",
"P  c #4C494C",
"I  c #524A4B",
"U  c #434652",
"Y  c #434A55",
"T  c #494C55",
"R  c #424D5B",
"E  c #494F5A",
"W  c #46515F",
"Q  c #49515D",
"!  c #60514C",
"~  c #465362",
"^  c #4A5664",
"/  c #4D5866",
"(  c #4A5768",
")  c #4C5A6A",
"_  c #505965",
"`  c #525E6D",
"'  c #525F70",
"]  c #55616E",
"[  c #546373",
"{  c #5A6574",
"}  c #5D6876",
"|  c #5D6A7A",
" . c #616E7E",
".. c #657383",
"X. c #697686",
"o. c #888C92",
"O. c #8D9197",
"+. c #8F949A",
"@. c #91959D",
"#. c #93999F",
"$. c #959BA3",
"%. c #989EA5",
"&. c #9AA0A6",
"*. c #9DA4AB",
"=. c #A4ABB3",
/* pixels */
"6 # # $ @ . + # # # % % % % % # @ # % 1 % , 1 3 3 3 3 y y 1 1 1 , < = , 1 3 1 3 6 a q 6 < < > 5 7 f m F V V V V C V M b M M N @.",
"1 # # # $ @ + # # # = , = % = # @ @ @ # , 1 q q q 1 1 q e 1 3 3 3 3 1 1 y b e y y a 6 6 2 < 2 7 7 v V D H V V C H C n M N C C @.",
"3 # # @ # = # + @ @ % < , 1 = % # $ % , , - 1 3 q 9 9 9 q q q q q 3 3 q i M b e u u 7 7 6 6 u 8 p p N D H V V V V V V n V R Z @.",
"6 # @ @ = = # @ @ $ , 1 3 1 3 1 , , , , 3 1 1 : 1 q w i w 9 q q q y e y v b M M g k f f f p n v v b V V V H V m C H m n V C C @.",
"6 % , % % = # # , , , , , , 3 y 5 < 3 < q e q w : 9 e s t w 9 w q y u u i b M M b A A b v v m m b b V V D H V D H V m V V V m @.",
"q % % % = = # = 3 , 3 , , 1 3 3 y 6 3 1 y i i 1 q q w s t t w w e e e a e b M M A A A b f v v m m m m V D V D H H H V V V V m @.",
"1 < = % , , % , 3 3 3 , , < 3 3 3 3 3 y M M i 1 w i r t t t w t t a u u e M M M A A v v v D D A m V m D D H H H H H H V V V m @.",
"< % , = % , , 1 , , < , > < 3 3 3 y e a M M e 1 w e i r j t t t i h i i b N C M m m m D v D D D V m V H H H H ( ~ H ~ H H m m @.",
", @ % % % % , , , , , 3 3 < < 3 y M M C C C b 9 q i h r r t j j s q e k N C C N M b v F m D D D D m D D H ~ ~ ~ ~ H H H H V V $.",
"% @ % % % , < , , 1 3 3 < < , 3 v M M b M V C a y i i i l c Z c e w e h B C N M k V b m D D D D D D D D ( ( ( ( ' ) ( ~ ~ D H %.",
"= + # % % < 2 , 1 3 3 , < , < 5 u b M a y a b M a a i a s Z c j i s i s B C M u f M n n D m m D D m D ~ ~ ( ) ' ' ( ( ( ) ( ~ $.",
"< @ % % , , 6 5 3 y y y 7 7 5 y v b M M b b M B M M i M h B c l l l h k k k B k k g f b A m D A m D D ~ H ~ ( ( ( ( ( ( ( ) ' *.",
"< + % % > , 5 y 7 3 7 7 7 u u u p v b b V C Z V M M a M k M k l k c Z k h d l B k f f g N A A D D D ~ ~ ( H ~ ( ) ( ~ ~ ~ ~ ) =.",
"1 + @ % > > 5 7 7 7 7 p v b v p b v v b m m V C Z M M M k z M k M l B N M M h k N k g V A m A D ( ~ ~ ~ ( ~ ~ ' ..) ( ~ ~ ( ) =.",
"1 + # % % > < 2 5 6 y a v a v a b C V V b v v C H Z M M M N B B B B l B I K l a z V B V A A m F ) [ ) ( ) ( ( ) ) ....( ~ ....*.",
"< + , , # % , 5 6 6 y M v v m b V C C V b a v m V V C Z N M N N N N B Z I ! B h k M S V A A A H ) [ [ [ ' ( ( ( ' ' ....~ ) ..=.",
"= + @ , = , , 2 7 7 8 g g g v f m D D m b n m A A V A F V z N C N B x P I J l k z N S Y G G R ~ ) [ [ [ [ [ ( ~ ) [ ....) ' ..=.",
", . + # = , , 2 5 7 p f b b p 8 f m m n A n g A F F G F A V N S C x x L I x g z S A S T Y H ~ ( ) [ [ [ [ [ ' ( ( [ [ ........=.",
"* @ @ # # > 2 2 7 5 8 8 f p 8 8 8 f v A N A N A A G W F A S F T S Z c L K J Z B L S F F R R ~ ( ( ( ' [ | ' ) ( ( ) ' ....X...*.",
"= o $ # # , 2 6 5 5 5 5 7 7 7 8 p 8 8 m n F G G F Y G A S A Q E S L B S J K P J S T T S D R ( ~ ( ( ' ' [ ' ' ' ( ) ( ' ....[ =.",
"- & $ + + > , 6 5 5 5 < > 2 8 8 p 7 7 p A D A Y Y G A V A S Q Q E B B B L K P S S U E A V R ~ ~ ( ( ) ) ) ) ( ' ' ' ' ) ~ ~ ~ *.",
"9 9 4 & + # % > 5 7 5 = > 5 8 8 u u v V A A b N b b N V S S E Q _ Y N C U P T L J L T S D R ~ ~ ~ ~ ( ) ) ) ( ' ' ' [ ' H D D $.",
"1 ; = * $ = 3 2 < 5 5 = > 5 7 7 7 v V D V N g p y p V S A S E ^ ^ U B S L U L P U T E A F ~ R W ( ~ ~ ( ) ~ ~ ( H ^ ) ) H m D $.",
"; = = = = = < 7 2 = 2 2 = 2 7 5 6 u V D V M f b b k V G S F Q ^ E L S L U U U L U T W Y ~ ^ ^ ( ( ~ ( ( ( ~ ~ ~ G G D ~ H D H $.",
"0 & = 4 ; = = % @ @ @ @ + # % < 2 8 m V f b V N M f N F G F Q Y Y R Y C S L U U E Y Y ~ ( ~ ' ' / ~ ^ ` _ ^ Q E G H Q / W F G *.",
"0 O * ; 4 4 = & @ o X X . X X % , 7 p v V n V A M b g f S Y Q E E W T S B S U T U U C W ~ ( } ' ^ ~ ^ ) { _ / _ Q ) ] ] _ W R &.",
"9 O * * & = & O X X     o @ # = 2 u 8 p n A N V V V g a G R Y W R Y Y F A U T T F U Y R ~ ` { ' ^ R / ` ] ] ` ` ] ] ] _ Q _ E %.",
"* . @ & o o   o X     X X $ 5 < 3 u 7 p f F A A S S g f G G G G G A A A C N V U U F F ~ ' '  . .[ ^ ^ / ` [  .] ] ] ] Q R _ Q &.",
"* o & * O $ o           X % < 6 6 8 7 p v n n G Y V b b S F A A G F V V N b b A R E F R ` ' | | | } [ ` ] { { } } ] ] R S G G $.",
"; o O : O o O   .       + % < < , 7 7 p n v n G A V b N S N m A Y S V n M N V T R H F H _ ' [ [ |  .{ / ] } ] Q _ ] Q G S F S #.",
"* o o * o   o o   o .   X + # > < 5 7 7 v v V H A A V N G N n A F F M N V F F A V D F R ) ) ` ' {  .{ / Q / Q G z S G F H H S #.",
"& o $ . o           o o . X + < 7 7 7 p V n v G S A g f N N g A m b f M C D F F V V W ~ ~ ^ ~ ( ' | } ~ G S S N z S W G G G F #.",
"&   o o   o         . X . @ # > 5 5 5 f n v p A A b 8 8 u b f N S b p g m A b A F V F G G D H W ~ ' ' ~ Y A V N N F R F C H H $.",
"&     o o O     . . . . @ # @ # = = 5 5 v A p p p f u 7 y u a p g f y g N m N G S A N b V V F H W ~ / ^ W F C C N n V D C F H %.",
"O       o O o   . . . X X + # # = % > 2 8 f 8 8 p p u 8 7 u p a f y 7 f A g g A V V n b n m D D V F G Y F U A C N b b M V H H $.",
"&       o o O o o X X . . X # < % % & < 5 6 8 p 8 8 u 6 6 p a p a u 6 f p f n g f k f a v n n m m m V V N C N M b g v b m V G $.",
"&       o   o o X @ X o   @ - 5 > @ & > 2 5 8 8 8 7 7 5 6 u 6 q 7 6 4 7 u f f g g g g u 7 f b b v m m n v b f a p a u u v b m %.",
"&       .     o X X X + X + = > 5 % % - < 2 5 5 8 5 5 7 8 6 6 3 4 5 5 7 p u p u g M M g y b V b V v v p p u y u u u u 8 u v b $.",
"O         . . . . . X X + @ @ # % % # % % 2 5 > < 6 5 5 2 2 3 q 5 5 4 7 q 6 7 u f a f f p b f f v p 8 8 8 6 6 q 3 u u u 8 p b @.",
"O   o o           o + & % % @ # % % % % = 5 - = = < 8 7 < 7 i u 6 4 q 7 6 6 6 7 y q y q 6 a u y 7 7 p 7 8 6 6 y y a f p p a v +.",
"&     o     .     . @ 4 4 = % % % % > < > > > - = < 6 3 1 y y y u 4 4 8 q 6 5 5 q q 6 6 q 6 y u y y y y 6 7 7 y u a a M a a a O.",
"&                 X % - 4 < # @ % % % % < - = = , 1 3 6 3 6 y u e 6 5 6 q 6 4 < q 6 6 6 a u u u p u u u y y 3 y u a u i u u u o."
};
