/* XPM */
static char *wall2[] = {
/* columns rows colors chars-per-pixel */
"64 43 119 2 ",
"   c #1B1F1E",
".  c #1C201F",
"X  c #1D2120",
"o  c #1E2120",
"O  c #1E2121",
"+  c #1E2221",
"@  c #1F2221",
"#  c #1F2322",
"$  c #202322",
"%  c #202323",
"&  c #202423",
"*  c #212423",
"=  c #212424",
"-  c #212524",
";  c #222524",
":  c #222525",
">  c #222625",
",  c #232625",
"<  c #232626",
"1  c #232726",
"2  c #242726",
"3  c #242727",
"4  c #242827",
"5  c #252827",
"6  c #252828",
"7  c #252928",
"8  c #262928",
"9  c #262929",
"0  c #262A29",
"q  c #272A29",
"w  c #272A2A",
"e  c #282A29",
"r  c #282A2A",
"t  c #282B2A",
"y  c #292B2A",
"u  c #282B2B",
"i  c #292B2B",
"p  c #292C2B",
"a  c #2A2C2B",
"s  c #2A2C2C",
"d  c #2A2D2C",
"f  c #2B2D2C",
"g  c #2B2D2D",
"h  c #2B2E2D",
"j  c #2C2E2D",
"k  c #2C2E2E",
"l  c #2C2F2E",
"z  c #2D2F2E",
"x  c #2D2F2F",
"c  c #2D302F",
"v  c #2E302F",
"b  c #2E3030",
"n  c #2E3130",
"m  c #2F3130",
"M  c #2F3131",
"N  c #2F3231",
"B  c #303231",
"V  c #303232",
"C  c #303332",
"Z  c #313332",
"A  c #313333",
"S  c #313433",
"D  c #323433",
"F  c #323434",
"G  c #323534",
"H  c #333534",
"J  c #333535",
"K  c #343535",
"L  c #343635",
"P  c #353635",
"I  c #343636",
"U  c #353636",
"Y  c #353736",
"T  c #353737",
"R  c #363736",
"E  c #363737",
"W  c #363837",
"Q  c #373837",
"!  c #373838",
"~  c #373938",
"^  c #383938",
"/  c #383939",
"(  c #383A39",
")  c #393A39",
"_  c #393A3A",
"`  c #393B3A",
"'  c #3A3B3A",
"]  c #3A3B3B",
"[  c #3A3C3B",
"{  c #3B3C3B",
"}  c #3B3C3C",
"|  c #3B3D3C",
" . c #3C3D3C",
".. c #3C3D3D",
"X. c #3C3E3D",
"o. c #3D3E3D",
"O. c #3D3E3E",
"+. c #3D3F3E",
"@. c #3E3F3E",
"#. c #3E3F3F",
"$. c #3E403F",
"%. c #3F403F",
"&. c #3F4040",
"*. c #3F4140",
"=. c #404140",
"-. c #404141",
";. c #414241",
":. c #414242",
">. c #414342",
",. c #424342",
"<. c #424343",
"1. c #434443",
"2. c #434444",
"3. c #444545",
"4. c #454645",
"5. c #474848",
"6. c #494A49",
"7. c #4A4B4B",
"8. c #4C4C4C",
/* pixels */
"r h v l v a n n n P P D n C C C Y Q C l C C n Y Y P Y Q Y Q Q _ o.o.' ' Q ' ' ' ' Q ' Q Q _ Y P P P P Y P P D D P C P z C C n z ",
"r 9 r r l r v n v a n D n P C D C A n n C P A A P C P Y Y Y Y Y o._ ' Q _ ' ' ' Q R ' R Q Y D P D n n C n D n C C n n n C C C z ",
"r r 9 3 y y r v y y n v v C n C C n v n v P C Y Y C P Y Q P C P _ Q Q Q Q _ _ Q Q ' ' $.$.' Q ' Y D C D C n a D P n n C C C C C ",
"p r r r a q q l a a v v a a v v n C C P P Y P C P C C Y Y P Y Y Q Y Y P Q Q R _ =.-.1.=.=.' ' ' Q R R Q P n P n C C n C P C P C ",
"r 9 r r l l a a y z z z n D C z l A A W Y C C v n Y P C Q Y C P _ P C P Q ' Y Q Q o.,.o.$.' o._ ' Q Q ' R Q P n C C z m C C P C ",
"l p r l n C D l y y D D C C P C C Y Y A Y -._ A P Q Q _ Y Y Q Y _ Y P Q ' _ Q ' ' o.1.=.$.$.' ' ' Q ' ' ' Q Q P H H C m P P C C ",
"r l l l n n n l n v P P z v n C Y Y A Y _ _ C A n Q ' o.Q R Y ' Q P _ Q ' $.o.' o.$.1.' =.$._ ' R R Q ' Q ' Q P C C m C H C P C ",
"9 r r p a n n n v P P n v z C C C Y C C [ _ C G Q o.' ' =.=.Y _ _ Q Q Y $.1.-.' Q ' -.' =.' ' ' ' ' Q ' ' ' P R P H C C C m C C ",
"5 8 8 5 y z z C C C z D P C P D A A G Y o.6.Y Y *.~ ~ [ *.| | | ' ' ' _ ,.=.=.$._ $.1.-.,.=.' ' #._ | ] Q ] ] Q O._ D m C D C C ",
"y 5 y 5 5 a C C P C z z C C P P Y A A W o.[ A [ ~ M | [ | [ ~ ~ _ ' ' ' o._ o.' ' ' $.o.o.8.$.' ] Q ] ] _ ] | | O.] P m m H H Q ",
"5 5 y y 5 z z z C C z z C C C P C A M A Y A Y Y Y [ _ | ~ [ [ [ ' ' Q o.=.Q _ ' Q Y Q Q R ' Y R Q #._ Q R ] ] Q Q _ H v m m H D ",
"; 5 5 5 5 y y y z z z z n z C C M v A M M Y A W W _ W | | ~ ~ ~ R Q Q Q -._ Y Q R P P _ R P P R Q O.O.R Q R P H P _ H m D Q R m ",
"5 5 5 5 5 q y y y a y y z z z z l l h v A G G G ~ G Y ~ ~ G A M n _ D Y Q _ Y P D P D Y Q Q R ' _ ] *.Q P P D D H Q H v D R ] H ",
"5 5 5 y 5 q 5 y y y a z z z z z l p l C M G ~ G W W C M N G M M l C P P C n P C C C C C P Y R Q _ R ] ] ] H Z D H D Z D m D D D ",
"; 5 y y y y y z a y y z z z z z h h p G A W | ~ A A A v c c h M l C P n n n C l C C P Y n n n n R | R R | H m v m D v j D H D D ",
"y ; y y y y z z C n z y z z C z h M h v M M ~ | M M v h h h h w l n l C n l C P l C C C C C P n Z R P R R R Q m D H v v m m v j ",
"5 % y y y v z z n v p a A A n n v n v v n v a Y A w 9 h 9 9 w h z z v C m m z C m m D z m H D m m m m P P ] R m D P j a m Z m D ",
"; ; y y z z y z l p a p a v n l p v n a v v C _ $.~ M G M h h w y z z z m C z z m m m m m D R m P H Z P P m Z H H H j j m m v D ",
"; 5 y y z z z z v p l a v a a n n l v n p P v Y 4.3.5.5.[ h w M a z v v a z z z C C m m m j R R | #.Q D Z Q R _ Q Z v z P R Z Z ",
"5 5 5 y y y v C v p p a v n n n n <.A r p C l a G ~ $.| [ w h c a z D C z z a m m D m z z j C D Z ] Q P R Q R R P m m m _ #.P D ",
"; q y y y z z z l v q a l a l n A 6.[ 5 l l p n N h h p 9 c M ~ v v v C m v C P C C D m m v m D D Z m H H z H D Z P z z D _ R H ",
"; a z q q y a z P Y p l P p p v A A A v p p p a p 9 w h v p v G v P n C z z v C j m H H H C C D ] P D P H D D H Z Z z v R H Z R ",
"; y y y 8 z C z n n q 5 a a A a p r l -.v p p 5 h p w w 9 9 h p z y a a m m j z m C z m C m m C _ R D H H Q Z v v D P j v Z R Q ",
"% ; ; 5 q y a z p A l q q v ' p 9 p h <.v p r l c v 9 w 9 w 9 p n z z n z y y j m m z z m m H v H R H D Z R D m D R R z Z P _ _ ",
"5 q 5 q a a a a z z n P v n a q p v p M M h w v 9 w 5 9 p h c < q n P z a a a a j m v j H z z C v Z R Z H D P v D P D m m v P R ",
"q y 5 y a P C [ _ q z a a a p q 9 v 9 5 2 A h 5 p h w 9 2 p c < q n P n n C z a j v v v m j j j z D P Z Z v v z Z Z P | P Z Z Z ",
"y 5 5 a a v z a C C Q n v a a n M h h p h M v M w h c h w 9 2 h a a a n q C a z j j v v m C D v D P H P P _ D Z R H ] O.Z D Z z ",
"q y q q ; q 8 8 a a P n a a p a p 9 5 p v [ w A G G M w h M p < z n a a n n y a j j a y j e j v z z v z Z P Z P R ;.3.D j v z j ",
"; q q q a y q q a a q q q q a a 5 p w p v A h W *.~ h < 9 v v h P Q D n _ a q a a a j j 8 8 % ; e j Z z Z D D v P ;.] z z y z Z ",
"% ; ; q z q ; y P a q q n n C a l p 9 p M v p v A M p p p h v h 5 a n n a n q q 8 e e e e j e % 2 e y a z j z Z ] _ y Z v y v Z ",
"5 5 ; ; ; ; q q q ; q a n a a q 5 h v p p 9 9 5 * 5 w w v w v v q a n a q ; ; a 8 e e e e y y ; e a y 8 y 8 y a z y y z D y z z ",
"5 5 8 5 q a y q q a n n n P a q 9 9 p w p 9 9 2 5 2 9 9 9 9 h w q a n n n q q q e 8 a e 8 8 8 2 8 y j y z z y y z z y v z y Z z ",
"5 * * 3 l v r 9 p p h C G h 5 < < 5 h 5 9 9 < * 3 9 < 5 $ < < 9 a a q ; q r q p p 9 9 9 r 9 9 9 9 p 5 5 h h 9 h r 9 9 v h v h 9 ",
"< 5 5 r v v l p l 5 p C l p p 5 3 9 3 < r 9 < 3 O O 5 9 < p r 5 r C q q r n p p h 9 9 r 9 h p < 5 9 5 5 r h 9 h p 9 9 r 9 9 r r ",
"* 3 p p l p h A C p v 9 9 3 < 3 9 3 3 3 p r * 3 O 5 v 9 p v r < q l q p p l a l p p p v p p 3 < G ~ C Y ~ G C l M l h M p < p 9 ",
"3 5 p P C p r r r 9 r 5 * $ $ < 5 r 5 r 5 < O * < < 9 p p h 3 5 ; 3 a n n C P Y M l M M C C 9 9 A [ Y C M Y $.A C C h M h 9 h h ",
"5 p 5 a C l 9 p 9 h 5 < * * < 3 3 3 * 3 < < $ O < < * l h 9 9 l p 9 r l a C o.o.C l l p C A A C M M G ~ C ~ G 9 9 p h h r 9 r 9 ",
"* 5 r l l v v v < O * * * O O O * < * < < O $ * < 5 O 3 9 < 9 r r 3 9 p q v C p h l M r h l C v C M G *.-._ C G h h 9 9 v M < < ",
". * 5 Y 5 < v p * < * O $ $ . * 3 O 3 < < < < $ * < O < < O O * $ * l v r 5 * r C M l 5 l A W P G A M ~ *.$.[ -.G l h 5 9 Y C G ",
"O * 5 n 5 l p O 5 5 < O * < $ * < 3 r < 9 < O 9 v v 3 3 v 5 9 < . 5 v v a 5 l P C v v 5 r C C v h h M A ~ _ Y ~ M h v p h ~ ~ G ",
"O < r 5 * v * * 3 < < 3 5 < O $ $ . r 3 3 $ $ 3 p 9 5 O 9 5 < 5 . . 5 l r C C C v v r 5 3 l C l M v h C Y A G W C W Y M l l C M ",
"* 5 5 3 5 5 * < * < $ * < O < < O O < * < 3 l C p O <   O p h p * $ p v 3 r p l p p 9 3 * 5 P C h 9 W G A M M l v [ W l 9 h 9 M ",
"p v 5 5 * < 5 p < 9 5 3 * 3 5 < $ * $ * 3 r r r p < 9 < * 9 9 p 3 O 5 3 3 < r 5 v p 5 * 3 l l Y C h [ Y C r l p h M _ G r r 9 9 "
};
