/* XPM */
static char *wall[] = {
/* columns rows colors chars-per-pixel */
"64 45 38 1 ",
"  c #D0D0D0",
". c #D3D3D3",
"X c #D4D4D4",
"o c #D5D5D5",
"O c #D6D6D6",
"+ c #D7D7D7",
"@ c #D8D8D8",
"# c #D9D9D9",
"$ c #DADADA",
"% c #DBDBDB",
"& c #DCDCDC",
"* c #DDDDDD",
"= c #DEDEDE",
"- c #DFDFDF",
"; c #E0E0E0",
": c #E1E1E1",
"> c #E2E2E2",
", c #E3E3E3",
"< c #E4E4E4",
"1 c #E5E5E5",
"2 c #E6E6E6",
"3 c #E7E7E7",
"4 c #E8E8E8",
"5 c #E9E9E9",
"6 c #EAEAEA",
"7 c #EBEBEB",
"8 c #ECECEC",
"9 c #EDEDED",
"0 c #EEEEEE",
"q c #EFEFEF",
"w c #F0F0F0",
"e c #F1F1F1",
"r c #F2F2F2",
"t c #F3F3F3",
"y c #F4F4F4",
"u c #F5F5F5",
"i c #F6F6F6",
"p c #F7F7F7",
/* pixels */
"999uuuw9wuwwww9ww4494944414411111144994-%1494ww1144ww944941,1994",
"w9uuuuwwwwww9w999444444444411111444144-o-1499991119w9949491,49w4",
"uwuwwwwwww99949491441194411441,111,,,-%%,11,1w9,,4ww994491,14999",
"uwww99ww494444944144114411141,,,1,,---%-114,4w9119w949999,144949",
"w9944444444444441,14111111111114,-,,--%,11914uw19999444441444444",
"44111141444449941-491111,1144411%-,1---1,14,4w41499499944,114111",
"41111141141411491-494111,1149411-,441-,11,11994,114444944,114441",
"1111444444494149,-444144-,114111%,441,441,,49991,,1114441-144411",
"144949444449994w,,414144,,14141,-,1,,14941,499u4,,,111441-149414",
"449999w999499949,,114114,-14444--,4,,499911444ww,,1111111-114111",
"949999ww9w9www94-,1141141,,441,-,11114991-414www1,1141111--1111,",
"99999www9ww99941-11441111,,441---1114941%-4,9ww99111111,1,o11,,,",
"99949ww99w999441-,1441111111,--1,14494,oo144wuu99911,,,---o,1,,,",
"ww999ww994494441-,1441111,11,-,1,1994,%o1414ww944441,,-,,,%-,,,,",
"ww9999499144449,,14144441144,-14,,441%.,9441499411144111,-%-14,,",
"9wwww9994414444-1414444144441111,,41-o-49419944941,,44141,,,1111",
"999994941144141-1111444444444114,11-%o19941ww444494114494,11,,14",
"99444441111414,,4444494494111114,,,-o-9491199494144411141,141,-4",
"14444111144444,144949499411-,111-1-%o,9941499944119441111-,,-,,1",
"44411,,1411144,,9999949111,-1111,1,o%19941499949414114111--,-,41",
"411111114114441144999111,,-,1,111,-o%4991,499499941114141--1--44",
"411414144411141149911144--,,,,,1,,%o-994,,499499994144441--1,194",
"44111144111,111149114444----,,11,-o%194,-,19949449911444,--,4149",
"14411111,,11111411149444-%%,1,,11,o%199,,,19999944944441,--,499w",
"4111111111114444,,444441-o,141,,,-o-1w4,-,19499444944111,--4w9ww",
"4411,,1114444941-1494111-o,1441,-o%,191,,,449444944944441-,uwwww",
"411,,,141494441,494911,--o14441,%o,,94,,,,94444441149944,-9uuwww",
"4,,,1199494441,49411,-,-%-444441oo,,91-,1,44444411114491-1uuwuww",
"1,,44949444941444111111,o-44444-.-1491,,1,4w44111,,,1,194uuwwuwu",
",,499994949944911111141-o,94441%.,194,,1111w9411,,11,%-1wpwwuwuw",
"144449999w9944411,11411%o14441,oo,491--,14199941,,,,,--,wuwuwuwu",
"1494449wwww94141111141,-%44441oo%199,-,,,4449441,1,1,-%1ww9wuuww",
"1444499uuw9414411144,,,--441,%o%,4w9--,,14119944411,---999999u9w",
"14999wwww44,44414441,,,--141-%-19994-,,144149ww99411,-149999wwww",
"49wwuww9114144144411,11,-1,-%-199w91%,,144149wwww441-,4199999www",
"wuwuw41,14411144111,11,,,,--%,499w4,%-11444114www941%44494499w99",
"www941,14944111111111111,----,49991-%-144441149w9991,4119449w999",
"w9441,1,4994111,1111,111--,,,199991,%-444441411499419,,94494w9w9",
"w4141,449w941,11414,,11,-,-,,4ww941,-,94411111,14941911999999999",
"4441119999w41,,1411,,11,-,-,19ww94-,-114444441,144199999999w9994",
"1441149999w94,1444,,,1,,,,-1499w44,--,144441,,,,1-,99ww999wwww99",
"4941499949991,1444,,111,,114999944,-,1141141,1,,,o,4www99wwwwww9",
"441199w94999411144,,1411,144999441,-11114141,,,,-.,4uwwuwuwuu994",
"41199999449444,144-14111199994444,,-111111411,,,o.,9wwupuuuwww99",
"419wwww94941411411-11111499444441,,,1,11411111,- o,49uuuwwwwwww9"
};
