/* XPM */
static char *wall9[] = {
/* columns rows colors chars-per-pixel */
"64 47 42 1 ",
"  c #050000",
". c #0B0202",
"X c #0A0608",
"o c #130101",
"O c #1B0100",
"+ c #240101",
"@ c #2C0101",
"# c #340101",
"$ c #3B0101",
"% c #241414",
"& c #2A1110",
"* c #331010",
"= c #440101",
"- c #4B0101",
"; c #530101",
": c #5B0101",
"> c #441111",
", c #4C1111",
"< c #541111",
"1 c #5C1111",
"2 c #640101",
"3 c #6C0102",
"4 c #740102",
"5 c #7B0102",
"6 c #671111",
"7 c #731111",
"8 c #7A1111",
"9 c #830102",
"0 c #8B0102",
"q c #930102",
"w c #9C0102",
"e c #831111",
"r c #8A1111",
"t c #951112",
"y c #9E1212",
"u c #A30102",
"i c #AB0101",
"p c #B30102",
"a c #BC0101",
"s c #C20001",
"d c #A3A1A1",
"f c #A9A7A7",
/* pixels */
"==--;-;;;:223323323334900qiiippaiiiuwq05434543-$$$=#+Oo...    Xd",
"=-=--;-;;;:::2::2:33445000uuiiiiwuiiuq0094::;-=$####+Ooo...   Xd",
"-==---=-;;;-;2::;:33455000wuuuiuwqiuq05533:--==#####+Oo....   Xd",
"==-----;;-===-;;;;23454000wwuuuiwwiq005522;===$##@##+Ooooo.    d",
"-------;---$==-=--:2245590quuwquuiuq05542;-===$$$@*@@+Oooo.   Xd",
"=====---==$==$$$-;;;:244549quw0qqpww00552;--=$##$#$@@O+O..o.  Xd",
"-=$===-$$##$;$#$=--=-=;35459000qqpwq99543:;=$$$@$$$@@++Oo...  Xd",
"=====$$##$$#=###$==$==-243450000qpq055442;-==$$$$$$##+++o..   Xd",
"=======##$$#@@$$==$$-=-24335000wiaq094342;-=-=$=-==#$#++Ooo.  Xd",
"--====$#$##@@#$=-$$>-=-;344590upaspw0533:-==;=$--=$#$$@Oo..   Xd",
"---===$$#####===-=-;;-;:3330uiipasiw9533:;;=-=$$$=##$$@+Oo.   Xd",
"==-==-$$#####=-=$;;2:;:25230iiiiipuq942::;;-==$#$$##@#@+O..   Xd",
"-=====$#@#@@@#==$=-;;--:4340wuuw0wq09532;;;--=$=-$@@@@@@+o.   Xd",
"==$===$@@@+++@$$==--;::22240wuwu0w055443;-------=$@++@+++o.   Xd",
"=====#$###@++#$==--;;:34235900059q944334;-=--=--$#@O+@@Oo     Xd",
"$==$$#$$#$@##$====--;:332244409559944342:-=-=$=-$#@++++OO.    Xd",
"====$$#@#=$=#$$$$--;::432:44400545544232;=$=$$=-##@+++@Oo.    Xd",
"==$=$#$#@$$$$$$-=,-2:;23225450q429542;:;;;-==-;;$@@+@#+oo. .  Xd",
"-===$$$##$$$$#$==-::;:22:245009549443::;--==;-:;$#@###Oo...   Xd",
"---=$$=$$$####$==-:::23323599955599452;;------;-$###@+Oo. . . Xd",
"====$$=$$#@#$#$$=;-;::34234545455qq952;;-=;;-=;-$$##++Ooo   . Xd",
"=$=======###@@#==;=-22;::245445550q5532;=;:-=$;-=$$@OOo.  .   Xd",
"$$=====$$$$@@$=;====;2;;;24344900q09432;=---=$=-;=$+oooo..    Xd",
"$$$===#$$#$$$=-;;,;;;2:3335900000000442;-;:;;=-;2-$#+oO+o......d",
"$$$$$$##$#$@#$=---;:;2::33455599909422:2---;-$=-;=#$@oo.o.....Xd",
"$$#@@$###@##@#--$#$-=;::23343459qq9223:2-;===#==@@#$#@O...... Xd",
"$##@@####@##@$$=$$;:-:22344440000q4223:<2;$$#$$==@##$#@o. ..  Xd",
"$####$#$$$$$$$=;--;;2433554550959q42:3:-;=,$#$=-=#$#$##o..o..  d",
"$#$$$----=$$=$-:::23343344459900003:2222;--=##$-$@#$$$@oo.o.o Xd",
"$$$$==-;===$===;34455423344500000q92332:2;:-#@@@#@#$=#+o..... Xd",
"$$#$$$--------;-23:22423323444900w0433233:===$$$@+@$=@o.....o.Xd",
"$$$#$$-;;=---==-:2:::443345463509q5363:22;#$$$-=@O+##@+o... ..od",
"$====$-;---------::2:433344345990q95532:-$#@#$--#+@#@OoO....  Xd",
"$$====-;;---;;---;;:232233334499505443::$*+#@#$$@+##OOoooo..  Xd",
"$==--==;:;===-=$=--;;3222232:2405542:;:<$#@@@#@@@+#@+OOo.o.   Xd",
"===-----:-=$===$$-;;;32233223:4u0942::;;=#$#@@@@#@#++Oo..oo  .od",
"===-====--==$--##$-:;2344343325099432:;;=#$#@#@###$#+Oo..o.. .Xd",
"#$=---=$=--==--$$$;::43433345559905432;=$#@+@-$#$$$#OooOoo.   Xd",
"$$=$===$$=-------:;:344432444455994322-$$$$#@#$$$#$@+o+O..   .Xd",
"##=##==##$=--;;=;:::34332345559559533:-$$$$#@@$#$##@+ooO   . .Xd",
"###$#$$#$#$=;-;-;;:2344223444595905432-==##$==$##@@@++oo      Xd",
"######$$$$#$;;::;:2234433345599540933:;-=$$==-=#@+@@+O..      Xd",
"#########$$=;;:::22225423334455435922:;--==$=--$@@@@@Oo... .  Xd",
"#@####$$#$=--;:::2:235434455555559462::;;-----;$@@#@++OO..... Xd",
"##@####$#$=-=-;:3:224955555995559944232::;:2::;--$==@OooOoo.oood",
"O+@@@@#$##==--:2332339595909909q09944443223543323::=$@+@@##@+oXd",
"&&*&&*>>>,<<116788778r8eettrttyytttrrer88e888888e8876,*<<<<,>%%f"
};
