/* XPM */
static char *_57ac9b25b154650a56e9c3124f2d1f20O5Fzx7pxswJKdam[] = {
/* columns rows colors chars-per-pixel */
"16 16 4 1 ",
"  c #122207",
". c #153300",
"X c #2D6D00",
"o c #5D6D00",
/* pixels */
"................",
"................",
"...          ...",
"... ........X...",
"... ........X...",
"... ........X...",
"... XXXXXXXXX...",
".............ooo",
".............ooo",
".............ooo",
"...          ...",
"... ........X...",
"... ........X...",
"... ........X...",
"... XXXXXXXXX...",
"................"
};
