/* XPM */
static char *_49d7b828b3a4f01cb73048270a15725vvf0bq8MWf01vnu0[] = {
/* columns rows colors chars-per-pixel */
"16 16 2 1 ",
"  c gray21",
". c red",
/* pixels */
"                ",
"                ",
"                ",
"                ",
"    .........   ",
"    .........   ",
"    .........   ",
"    .........   ",
"    .........   ",
"    .........   ",
"    .........   ",
"    .........   ",
"                ",
"                ",
"                ",
"                "
};
