/* XPM */
static char *_95176e170c248029ff45290b7e9abd99hugHOgsvuUNYLy8[] = {
/* columns rows colors chars-per-pixel */
"16 16 5 1 ",
"  c #002001",
". c #3C3E3C",
"X c #004302",
"o c #005603",
"O c #07850A",
/* pixels */
"                ",
" XXXXXXXXXXXXXX ",
" XooooooooooooX ",
" XoOOOOOOOOOOoX ",
" XoO........OoX ",
" XoO........OoX ",
" XoO........OoX ",
" XoO........OoX ",
" XoO........OoX ",
" XoO........OoX ",
" XoO........OoX ",
" XoO........OoX ",
" XoOOOOOOOOOOoX ",
" XooooooooooooX ",
" XXXXXXXXXXXXXX ",
"                "
};
